<?xml version="1.0" encoding="utf-8"?>
<!-- Generator: Adobe Illustrator 15.0.0, SVG Export Plug-In . SVG Version: 6.00 Build 0)  -->
<!DOCTYPE svg PUBLIC "-//W3C//DTD SVG 1.1//EN" "http://www.w3.org/Graphics/SVG/1.1/DTD/svg11.dtd">
<svg version="1.1" id="Layer_1" xmlns="http://www.w3.org/2000/svg" xmlns:xlink="http://www.w3.org/1999/xlink" x="0px" y="0px"
	 width="307px" height="457px" viewBox="-64.507 -144.03 307 457" style="enable-background:new -64.507 -144.03 307 457;"
	 xml:space="preserve">
<style type="text/css">
<![CDATA[
	.st0{fill:#E07C8A;}
	.st1{clip-path:url(#SVGID_9_);fill:#783151;}
	.st2{fill:#E8A6AC;}
	.st3{fill:#EC1C24;}
	.st4{fill:#894600;}
	.st5{fill:#8D1A36;}
	.st6{fill:#BED6E3;}
	.st7{fill:#F06022;}
	.st8{fill:#F48164;}
	.st9{fill:#F8BC62;}
	.st10{fill:url(#SVGID_1_);}
	.st11{fill:url(#SVGID_2_);}
	.st12{fill:url(#SVGID_3_);}
	.st13{fill:url(#SVGID_4_);}
	.st14{fill:url(#SVGID_5_);}
	.st15{fill:#FCB912;}
	.st16{fill:#FFFFFF;}
	.st17{fill:none;}
	.st18{fill:#CA950E;}
	.st19{fill:#6A2C35;}
	.st20{fill:#D0D3A9;}
	.st21{fill:#D3EEFB;}
	.st22{fill:#3A2A29;}
	.st23{clip-path:url(#SVGID_7_);fill:#3A2A29;}
	.st24{fill:url(#SVGID_10_);}
	.st25{fill:url(#SVGID_11_);}
	.st26{fill:url(#SVGID_12_);}
	.st27{fill:url(#SVGID_13_);}
	.st28{fill:#3E0F22;}
	.st29{clip-path:url(#SVGID_7_);fill:#783151;}
	.st30{fill:#DEEEDB;}
	.st31{clip-path:url(#SVGID_9_);fill:#3A2A29;}
]]>
</style>
<g>
	<path class="st3" d="M175.612,270.443c0,0-2.182-0.504-4.529,0c-7.203,1.547-9.391,17.608-9.391,17.608s8.555-13.416,14.926-13.584
		C182.99,274.3,175.612,270.443,175.612,270.443z"/>
	<path class="st3" d="M184.707,274.529c0,0-2.055-0.304-4.186,0.336c-6.543,1.959-7.381,16.966-7.381,16.966
		s6.916-13.031,12.791-13.655C191.809,277.551,184.707,274.529,184.707,274.529z"/>
	<path class="st3" d="M189.61,278.007c0,0-1.814,0.193-3.486,1.211c-5.131,3.115-2.523,16.064-2.523,16.064s3-12.613,7.859-14.446
		C196.321,279.005,189.61,278.007,189.61,278.007z"/>
	<path class="st3" d="M179.004,264.485c-20.928,9.105-32.646-10.007-32.646-10.007l2.291-1.812c0,0,10.631,17.337,29.617,9.078"/>
	<path class="st8" d="M169.328,262.462c0,0,4.08,24.303,34.498,28.489c19.555,2.69,21.564-5.488,21.564-5.488l-17.643-32.148
		L169.328,262.462z"/>
	<path class="st3" d="M212.061,275.923c-8.186,3.639-0.131,26.396-0.131,26.396s0.916-19.208,2.875-22.477
		C216.766,276.577,213.237,275.401,212.061,275.923z"/>
	<path class="st3" d="M217.028,281.28c-1.047,3.527,1.043,15.551,3.527,20.646c0,0,0.652-15.288-1.045-18.815
		C217.811,279.581,217.028,281.28,217.028,281.28z"/>
	<path class="st3" d="M221.992,285.855c0,0,2.223,6.924,3.92,15.157c1.568-6.927-0.391-14.505-0.391-14.505L221.992,285.855z"/>
	<path class="st3" d="M227.219,287.945c0,0,3.006,2.613,6.398,9.479c-0.867-4.827-4.045-11.047-4.045-11.047L227.219,287.945z"/>
	<path class="st3" d="M224.867,279.319c0,0,5.096,3.66,5.096,6.405c0,2.744-8.139,3.789-12.805-2.354
		c-7.842-10.323-12.023-15.679-12.545-37.11"/>
	<polygon class="st18" points="217.033,225.986 220.278,225.81 219.662,231.333 224.748,232.648 221.504,236.33 212.824,232.999 	
		"/>
	<path class="st3" d="M225.912,283.239c-2.613-1.959,0.393-12.544-7.578-33.845c-2.914-7.784-12.154-15.159-12.154-15.159h-12.781"
		/>
	<path class="st15" d="M215.59,246.912l10.584-12.415l-4.836,0.394l2.746-6.143l-8.232,0.784l2.482-6.927l-14.244,7.58
		C204.09,230.185,203.698,242.732,215.59,246.912z"/>
	
		<ellipse transform="matrix(-0.7251 -0.6886 0.6886 -0.7251 206.3935 552.6829)" class="st3" cx="213.499" cy="235.15" rx="1.176" ry="2.092"/>
	<path class="st3" d="M208.733,229.141c-1.334,1.189-1.773,2.667-0.984,3.301c0.789,0.635,2.512,0.187,3.846-1.003
		c1.332-1.188,1.771-2.666,0.982-3.299C211.787,227.507,210.065,227.955,208.733,229.141z"/>
	<path class="st3" d="M192.721,228.355c0,0,3.004-2.614,6.141-2.614c3.139,0,8.627,1.047,10.193,24.177"/>
	<path class="st3" d="M189.871,228.04c0,0,3.861-4.09,6.02-11.247c2.16-7.157,4.205-4.431,2.047,0
		c-2.16,4.431-3.637,8.521-3.863,12.156C193.846,232.584,189.871,228.04,189.871,228.04z"/>
	<path class="st3" d="M196.627,230.166c0,0,4.029-3.924,6.484-10.985c2.457-7.062,4.385-4.25,2.045,0.085
		c-2.342,4.337-3.988,8.362-4.367,11.984C200.41,234.873,196.627,230.166,196.627,230.166z"/>
	<path class="st8" d="M171.158,235.021c-2.223,0-9.279,2.743-9.279,11.366c0,8.626,8.234,35.679,45.348,15.684
		c0,0-2.744-8.754-2.613-15.812c0.129-7.058-1.639-19.999-14.768-18.688C180.698,228.486,177.094,235.021,171.158,235.021z"/>
	<g>
		<g>
			<path class="st16" d="M189.977,247.825c0,0-2.092,4.313-6.143,4.313c-2.42,0-3.949-0.68-4.92-1.593l0.156,7.62
				c1.447,1.804,3.494,2.206,5.549,2.206c4.312,0,12.414-1.176,12.414-7.579C197.033,246.39,189.977,247.825,189.977,247.825z"/>
			<path class="st4" d="M177.274,246.079c-0.617,6.546,0.236,10.143,1.797,12.087l-0.156-7.62
				C177.309,249.038,177.233,246.901,177.274,246.079z"/>
		</g>
		<path class="st17" d="M177.301,245.735c0,0-0.916,6.403,6.533,6.403c4.051,0,6.143-4.313,6.143-4.313s7.057-1.435,7.057,4.968
			c0,6.403-8.102,7.579-12.414,7.579C180.305,260.372,175.205,256.827,177.301,245.735z"/>
	</g>
	<g>
		<path class="st3" d="M153.147,232.854c0.242,5.201-3.551,13.274-3.551,13.274c-0.914-2.352-3.658-2.614-6.404-7.713
			c-1.98-3.678,1.613-8.025,3.771-10.165c-0.168-0.006-0.332-0.025-0.502-0.025c-7.65,0-13.854,6.201-13.854,13.852
			s6.203,13.851,13.854,13.851s12.479-5.614,12.479-12.528C158.94,238.965,156.625,235.078,153.147,232.854z"/>
	</g>
	<path class="st3" d="M214.153,261.678c0,0,12.152,3.135,12.152,9.147c0,6.01-11.021,4.934-14.42,1.771"/>
	<path class="st17" d="M214.022,267.951c0,0,3.266,3.923,7.84,2.092"/>
	<path class="st17" d="M219.117,269.781c0,0-0.131-1.438,2.09-2.352"/>
	<path class="st3" d="M211.537,269.127c-3.66,3.268-5.096-0.914-8.102-2.482c-3.006-1.566-7.711,2.092-9.408,3.268
		c-0.393-12.415,9.537-14.767,14.373-14.767c2.875,0,7.186,4.522,5.621,13.46c-0.916,5.228-8.105,7.579-10.979,6.403
		c-2.875-1.176-5.096-5.62-5.357-7.319"/>
	<path class="st3" d="M204,209.402c1.225,1.843-0.445,4.858-3.73,6.733c-3.287,1.878-6.941,1.903-8.164,0.06
		c-1.225-1.843,0.445-4.857,3.732-6.734C199.121,207.584,202.778,207.559,204,209.402z"/>
	<path class="st3" d="M214.375,210.842c1.443,2.172-0.525,5.724-4.396,7.934c-3.869,2.211-8.174,2.242-9.617,0.07
		c-1.441-2.173,0.527-5.724,4.396-7.934C208.629,208.702,212.936,208.671,214.375,210.842z"/>
	<path class="st17" d="M201.912,213.384c0,0,9.77-2.612,10.225,2.955"/>
	<path class="st17" d="M196.233,209.295c0,0,5.227-1.478,4.43,4.998"/>
	<path class="st17" d="M204.865,201.343c0,0,2.953-2.613,5.227-1.591"/>
	<path class="st17" d="M219.864,202.818c1.361,0.796,1.021,3.069-0.455,4.205"/>
	<path class="st17" d="M149.432,245.765c2.021,3.972-0.404,7.272-0.404,7.272"/>
	<polygon class="st3" points="137.574,220.364 147.272,237.435 162.448,224.788 160.266,218.235 154.916,215.845 147.063,214.821 
		142.281,215.276 	"/>
	<polyline class="st17" points="142.166,215.618 146.606,218.235 156.168,219.374 160.266,218.235 	"/>
	<polygon class="st17" points="161.631,224.496 156.168,219.374 149.908,225.749 146.606,218.235 137.574,220.364 149.908,225.749 	
		"/>
	<line class="st17" x1="149.908" y1="225.749" x2="147.272" y2="237.435"/>
</g>
<g>
	<path class="st21" d="M203.535-31.794L203.535-31.794c-1.268-0.161-2.199-1.231-2.199-2.483l0,0
		c-1.023,0.193-2.1-0.295-2.629-1.258l0,0c-0.457-0.826-0.387-1.81,0.09-2.555l0,0c-0.809-0.245-1.479-0.895-1.705-1.768l0,0
		c-0.217-0.844,0.027-1.702,0.568-2.299l0,0c-0.721-0.349-1.252-1.042-1.379-1.889l0,0c-0.127-0.846,0.188-1.646,0.762-2.185l0,0
		c-0.672-0.399-1.154-1.115-1.221-1.953l0,0c-0.066-0.839,0.281-1.608,0.875-2.108l0,0c-0.654-0.43-1.086-1.156-1.123-1.995l0,0
		c-0.035-0.829,0.342-1.581,0.957-2.062l0,0c-0.635-0.45-1.047-1.188-1.053-2.018l0,0c-0.006-0.83,0.391-1.573,1.018-2.033l0,0
		c-0.615-0.461-1.01-1.209-0.994-2.04l0,0c0.023-0.831,0.441-1.554,1.078-2.004l0,0c-0.605-0.491-0.979-1.251-0.926-2.093l0,0
		c0.078-1.373,1.266-2.43,2.639-2.354l0,0c1.373,0.088,2.43,1.266,2.344,2.65l0,0c0,0,0,0,0.01-0.001l0,0
		c-0.055,0.792-0.465,1.484-1.072,1.904l0,0c0.576,0.472,0.947,1.19,0.934,2.001l0,0l0,0l0,0c-0.016,0.802-0.414,1.514-1.02,1.963
		l0,0c0.594,0.451,0.986,1.16,0.992,1.971l0,0l0,0l0,0c0.004,0.8-0.363,1.521-0.951,1.979l0,0c0.605,0.433,1.008,1.13,1.041,1.939
		l0,0c0.035,0.799-0.312,1.521-0.887,2.008l0,0c0.623,0.401,1.055,1.088,1.119,1.886l0,0l0,0l0,0
		c0.062,0.789-0.244,1.52-0.779,2.025l0,0c0.633,0.371,1.094,1.018,1.207,1.793l0,0c0.113,0.768-0.143,1.506-0.627,2.041l0,0
		c0.641,0.311,1.148,0.886,1.332,1.631l0,0c0.182,0.703,0.043,1.408-0.318,1.971l0,0c0.604,0.182,1.148,0.594,1.477,1.194l0,0
		c0.201,0.384,0.305,0.79,0.307,1.2l0,0c0.09-0.023,0.18-0.035,0.27-0.038l0,0c-0.041-0.349-0.012-0.71,0.098-1.063l0,0l0,0l0,0
		c0.229-0.718,0.752-1.254,1.383-1.533l0,0c-0.457-0.547-0.68-1.291-0.533-2.045l0,0c0,0,0,0-0.012,0l0,0
		c0.146-0.774,0.629-1.4,1.268-1.75l0,0c-0.518-0.524-0.799-1.266-0.713-2.048l0,0c0,0,0,0-0.002-0.011l0,0
		c0.096-0.783,0.547-1.447,1.174-1.837l0,0c-0.555-0.493-0.877-1.224-0.832-2.016l0,0c0.055-0.802,0.473-1.485,1.08-1.905l0,0
		c-0.574-0.461-0.938-1.181-0.922-1.981l0,0c0.016-0.791,0.395-1.492,0.971-1.941l0,0c-0.594-0.432-0.986-1.119-1.02-1.909l0,0
		c-0.033-0.779,0.283-1.489,0.828-1.967l0,0c-0.611-0.381-1.051-1.018-1.154-1.785l0,0c-0.193-1.363,0.768-2.625,2.133-2.817l0,0
		c1.365-0.192,2.625,0.76,2.816,2.134l0,0c0.117,0.857-0.207,1.668-0.801,2.206l0,0c0.674,0.42,1.137,1.155,1.174,2.005v0.01
		c0.035,0.839-0.352,1.602-0.977,2.081l0,0c0.635,0.471,1.039,1.218,1.023,2.06l0,0c-0.004,0.84-0.43,1.584-1.076,2.023l0,0
		c0.605,0.492,0.969,1.262,0.916,2.104l0,0c-0.055,0.832-0.512,1.557-1.18,1.968l0,0c0.586,0.522,0.91,1.302,0.816,2.146l0,0
		c-0.094,0.834-0.592,1.529-1.291,1.911l0,0c0.557,0.553,0.844,1.374,0.699,2.209l0,0c-0.164,0.845-0.723,1.522-1.463,1.846l0,0
		c0.529,0.635,0.727,1.519,0.463,2.368v-0.011c-0.318,1.011-1.221,1.668-2.219,1.739l0,0c0.027,0.199,0.033,0.41,0,0.611l0,0
		c-0.152,1.244-1.184,2.158-2.393,2.195l0,0C203.795-31.772,203.666-31.778,203.535-31.794z M204.151-36.756"/>
	<path class="st16" d="M203.44-32.932h0.01c-0.822-0.104-1.408-0.857-1.312-1.67l0,0c0.104-0.824,0.846-1.406,1.67-1.312l0,0
		c0,0,0,0,0.01,0l0,0c0.814,0.104,1.396,0.856,1.303,1.68l0,0c-0.096,0.744-0.721,1.293-1.449,1.316l0,0
		C203.6-32.916,203.52-32.924,203.44-32.932z M199.367-36.157L199.367-36.157c-0.402-0.727-0.131-1.646,0.598-2.038l0,0
		c0.727-0.394,1.637-0.132,2.039,0.596l0,0c0,0,0,0-0.01,0.001l0,0c0.402,0.729,0.131,1.637-0.588,2.028l0,0
		c-0.217,0.117-0.443,0.185-0.674,0.191l0,0C200.182-35.362,199.643-35.645,199.367-36.157z M205.481-35.796
		c-0.787-0.246-1.223-1.093-0.969-1.881l0,0c0.246-0.788,1.094-1.226,1.881-0.979l0,0c0.789,0.256,1.225,1.104,0.979,1.891l0,0
		c-0.199,0.617-0.768,1.025-1.387,1.044l0,0C205.824-35.717,205.653-35.742,205.481-35.796z M197.85-40.252
		c-0.205-0.803,0.279-1.619,1.084-1.824l0,0c0.803-0.205,1.619,0.279,1.824,1.084l0,0c0.205,0.795-0.279,1.619-1.084,1.824l0,0
		c-0.109,0.023-0.219,0.037-0.328,0.041l0,0C198.666-39.107,198.022-39.557,197.85-40.252z M206.594-39.643
		c-0.816-0.145-1.359-0.918-1.215-1.732l0,0c0.154-0.826,0.928-1.359,1.742-1.215l0,0c0.814,0.145,1.359,0.918,1.215,1.743l0,0
		c-0.129,0.704-0.732,1.212-1.434,1.234l0,0C206.805-39.61,206.703-39.625,206.594-39.643z M197.063-44.34
		c-0.127-0.815,0.441-1.583,1.268-1.699l0,0c0.816-0.115,1.574,0.451,1.699,1.268l0,0l0,0l0,0c0.117,0.827-0.449,1.585-1.277,1.701
		l0,0c-0.059,0.012-0.109,0.013-0.17,0.015l0,0C197.832-43.033,197.166-43.582,197.063-44.34z M207.262-43.586
		c-0.824-0.094-1.418-0.836-1.324-1.659l0,0c0.096-0.833,0.836-1.417,1.66-1.321l0,0c0.824,0.094,1.416,0.836,1.322,1.659l0,0
		c-0.086,0.743-0.709,1.302-1.439,1.325l0,0C207.401-43.58,207.33-43.578,207.262-43.586z M196.606-48.406
		c-0.076-0.828,0.543-1.548,1.371-1.623l0,0c0.828-0.066,1.547,0.551,1.613,1.38l0,0c0.076,0.818-0.543,1.548-1.371,1.614l0,0
		c-0.02,0-0.051,0.001-0.07,0.002l0,0C197.35-47.009,196.67-47.609,196.606-48.406z M207.688-47.571
		c-0.832-0.055-1.455-0.766-1.4-1.587l0,0l0,0l0,0c0.055-0.833,0.766-1.455,1.588-1.41l0,0c0.832,0.054,1.453,0.775,1.408,1.597l0,0
		c-0.055,0.782-0.686,1.383-1.457,1.406l0,0C207.787-47.564,207.737-47.563,207.688-47.571z M196.36-52.471
		c-0.035-0.83,0.613-1.529,1.443-1.555l0,0c0.818-0.037,1.52,0.611,1.555,1.441l0,0c0.035,0.818-0.613,1.52-1.443,1.556l0,0
		c0,0,0,0-0.01,0.001l0,0C197.086-51.002,196.395-51.642,196.36-52.471z M207.924-51.57c-0.832-0.015-1.492-0.694-1.479-1.515l0,0
		c0.014-0.831,0.693-1.493,1.525-1.479l0,0c0.83,0.004,1.48,0.685,1.467,1.516h0.01c-0.014,0.811-0.654,1.46-1.455,1.484l0,0
		C207.963-51.561,207.944-51.571,207.924-51.57z M197.781-55.026c-0.83,0.005-1.512-0.664-1.518-1.494l0,0
		c-0.006-0.83,0.664-1.502,1.494-1.507l0,0c0.82-0.007,1.5,0.653,1.508,1.483l0,0c0.004,0.82-0.645,1.491-1.455,1.516l0,0
		C197.801-55.027,197.791-55.027,197.781-55.026z M206.393-57.004c-0.035-0.83,0.604-1.53,1.434-1.566l0,0
		c0.828-0.035,1.529,0.604,1.564,1.433l0,0c0.035,0.83-0.604,1.53-1.432,1.565l0,0c-0.01,0-0.01,0-0.02,0l0,0
		C207.119-55.547,206.428-56.186,206.393-57.004z M197.756-59.028c-0.83-0.025-1.482-0.705-1.469-1.535l0,0
		c0.016-0.831,0.705-1.482,1.537-1.468l0,0c0.82,0.014,1.482,0.704,1.467,1.524l0,0l0,0l0,0c-0.016,0.811-0.664,1.451-1.455,1.477
		l0,0C197.807-59.029,197.787-59.028,197.756-59.028z M206.055-60.846c-0.117-0.817,0.461-1.574,1.277-1.69l0,0
		c0.826-0.116,1.586,0.461,1.701,1.276l0,0c0.115,0.818-0.463,1.576-1.279,1.691l0,0c-0.059,0.012-0.109,0.014-0.17,0.016l0,0
		C206.836-59.53,206.168-60.079,206.055-60.846z M197.842-63.031c-0.822-0.055-1.453-0.767-1.408-1.588l0,0
		c0.053-0.832,0.764-1.465,1.586-1.41l0,0c0.822,0.045,1.453,0.756,1.41,1.588l0,0l0,0l0,0c-0.047,0.771-0.678,1.381-1.447,1.405
		l0,0C197.932-63.034,197.893-63.033,197.842-63.031z"/>
</g>
<path class="st28" d="M73.084-138.276c-16.156,0.502-42.029,27.754-41.573,42.438c0.456,14.682,4.071,15.112,4.163,18.041
	c0.091,2.927-10.521-0.222-10.328,5.996c0.193,6.221,3.817,4.459,3.209,7.41c-0.609,2.946-15.975,10.384-15.486,26.115
	c0.488,15.734,15.143,19.309,18.159,20.498C34.243-16.59,34.727-1.039,45.22,9.621c10.496,10.662,29.218,9.715,37.727,7.253
	c8.512-2.463,28.599,14.159,37.308,10.745c7.1-2.785,4.861-7.111,7.289-7.918c2.428-0.808,5.292,1.117,10.121-1.412
	c4.828-2.531,10.49-12.047,5.155-25.799c-5.333-13.75-10.986-9.547-11.319-14.664c-0.334-5.117-5.537-8.985-4.611-13.041
	c0.927-4.057,13.328-11.034,13.049-20c-0.146-4.756-3.011-6.682-3.011-6.682s2.646-5.024-0.923-7.113
	c-3.568-2.084-6.719,2.586-9.363-2.455c-6.148-11.713,15.025-18.412,8.99-32.143c-4.844-11.023-8.72-4.307-32.305-24.634
	C91.336-138.574,79.509-138.475,73.084-138.276z"/>
<path class="st20" d="M86.367-47.291c0.039,1.279-0.969,2.354-2.248,2.395c-1.281,0.039-2.356-0.971-2.396-2.251
	c-0.039-1.282,0.971-2.354,2.252-2.394C85.254-49.581,86.327-48.574,86.367-47.291z"/>
<circle class="st30" cx="84.318" cy="-47.552" r="1.237"/>
<linearGradient id="SVGID_1_" gradientUnits="userSpaceOnUse" x1="49.0881" y1="11.8796" x2="101.0681" y2="11.8796" gradientTransform="matrix(0.9995 -0.031 0.031 0.9995 4.1563 -45.6945)">
	<stop  offset="0" style="stop-color:#CE6E32"/>
	<stop  offset="0.0753" style="stop-color:#CF7438"/>
	<stop  offset="0.2203" style="stop-color:#D17A3E"/>
	<stop  offset="1" style="stop-color:#CD6B2C"/>
</linearGradient>
<path class="st10" d="M83.973-54.692c-1.474,3.471-3.006,5.1-2.928,7.602c3.096,2.564,22.381,24.415,22.381,24.415l3.024,15.017
	l-37.747-6.418L53.145-49.635l8.693,0.691c0,0,7.344-2.732,7.281-16.206"/>
<g>
	
		<linearGradient id="SVGID_2_" gradientUnits="userSpaceOnUse" x1="144.3752" y1="-31.0354" x2="171.7942" y2="59.9096" gradientTransform="matrix(0.9995 -0.031 0.031 0.9995 4.1563 -45.6945)">
		<stop  offset="0" style="stop-color:#CE6E32"/>
		<stop  offset="0.0753" style="stop-color:#CF7438"/>
		<stop  offset="0.2203" style="stop-color:#D17A3E"/>
		<stop  offset="1" style="stop-color:#CD6B2C"/>
	</linearGradient>
	<path class="st11" d="M90.244-42.297c0,0,6.844,2.587,13.193,3.18c6.348,0.595,15.236,7.868,15.236,7.868
		s31.299,7.929,32.875,7.682c1.674-3.413,26.795-29.367,28.57-35.503c1.963-6.787,8.174-10.738,10.697-12.201
		c2.527-1.463,6.049-9.089,6.049-9.089s3.137,2.93,1.393,6.681c-0.932,2.006-4.346,6.467-4.346,6.467s6.777,1.753,10.23-1.718
		c3.453-3.472,0.492-10.585,2.502-13.63c0.529-0.801,1.16-1.428,1.803-1.916c0,0,0.611,6.264,0.727,8.777l0.209-0.178
		c1.586-7.771,6.6-10.658,6.6-10.658s0.639,1.195,0.25,2.622c-0.391,1.425-2.836,11.261-3.064,12.952
		c-0.322,2.382-5.041,7.732-5.041,7.732l-2.961,3.062l-18.949,6.448c0,0-0.736,1.8-2.273,3.232
		c-1.537,1.434-14.463,37.441-22.715,45.607c0,0-40.615-8.431-51.816-12.434C98.21-21.318,90.244-42.297,90.244-42.297z"/>
	<path class="st17" d="M183.004-60.623c0,0,4.488-4.773,10.449-3.945c5.963,0.828,8.561,1.195,10.674-1.068
		c1.986-2.129,3.463-3.455,3.734-6.771c0.27-3.316,2.844-4.559,4.031-4.898c0,0-1.414,7.025-1.533,8.469
		c-0.117,1.441-4.072,7.478-5.193,8.671"/>
</g>
<linearGradient id="SVGID_3_" gradientUnits="userSpaceOnUse" x1="54.4788" y1="-2.594" x2="81.3824" y2="86.6418" gradientTransform="matrix(0.9995 -0.031 0.031 0.9995 4.1563 -45.6945)">
	<stop  offset="0" style="stop-color:#CE6E32"/>
	<stop  offset="0.0753" style="stop-color:#CF7438"/>
	<stop  offset="0.2203" style="stop-color:#D17A3E"/>
	<stop  offset="1" style="stop-color:#CD6B2C"/>
</linearGradient>
<path class="st12" d="M58.384,35.711c0,0,11.572-14.47,11.41-19.691c-0.162-5.221,33.745-7.319,36.878-7.417
	c2.251-0.069-0.594,13.241-4.026,24.017c-0.346,3.459,0.312,6.159-1.202,9.596c-6.039,13.705-14.803,5.174-25.99-2.151
	C67.225,34.676,58.384,35.711,58.384,35.711z"/>
<path class="st21" d="M183.791,28.028c-0.883-0.054-1.627-0.55-2.039-1.258l0,0c-0.572,0.577-1.424,0.875-2.289,0.691l0,0
	c-0.867-0.183-1.535-0.792-1.83-1.563l0,0c-0.666,0.49-1.561,0.648-2.391,0.324v0.01c-0.832-0.324-1.393-1.037-1.559-1.854l0,0
	c-0.738,0.384-1.648,0.382-2.414-0.074l0,0c-0.764-0.446-1.199-1.254-1.225-2.084l0,0c-0.793,0.256-1.688,0.104-2.377-0.466l0,0
	c-0.678-0.579-0.975-1.44-0.859-2.265l0,0c-0.826,0.125-1.686-0.168-2.258-0.85h-0.01c-0.582-0.682-0.73-1.598-0.465-2.396l0,0
	c-0.891-0.033-1.727-0.527-2.152-1.373l0,0c-0.631-1.232-0.125-2.738,1.105-3.357l0,0c1.23-0.628,2.736-0.125,3.355,1.107l0,0l0,0
	l0,0c0.309,0.609,0.342,1.299,0.139,1.906l0,0c0.682,0.02,1.352,0.318,1.828,0.873l0,0c0.479,0.566,0.672,1.279,0.572,1.964l0,0
	c0.688-0.092,1.402,0.087,1.969,0.569l0,0l0,0l0,0c0.574,0.473,0.877,1.152,0.887,1.844l0,0c0.664-0.211,1.396-0.154,2.039,0.227
	l0,0c0.631,0.38,1.041,0.997,1.182,1.664l0,0c0.611-0.311,1.34-0.373,2.037-0.104l0,0c0.689,0.258,1.195,0.803,1.436,1.445l0,0
	c0.559-0.406,1.283-0.59,2.008-0.441l0,0l0,0l0,0c0.736,0.156,1.318,0.609,1.668,1.219l0,0c0.484-0.506,1.178-0.798,1.928-0.75l0,0
	c0.703,0.037,1.322,0.369,1.748,0.865l0,0c0.307-0.43,0.746-0.764,1.293-0.93l0,0c0.445-0.145,0.895-0.158,1.318-0.053l0,0
	c0.014-0.51,0.189-1.006,0.516-1.436l0,0c0.402-0.543,0.994-0.871,1.621-0.961l0,0c-0.27-0.602-0.291-1.311-0.021-1.971l0,0l0,0l0,0
	c0.299-0.699,0.863-1.197,1.537-1.418l0,0c-0.408-0.588-0.553-1.344-0.346-2.09l0,0c0.207-0.758,0.74-1.334,1.412-1.615l0,0
	c-0.469-0.565-0.693-1.328-0.537-2.104l0,0c0.156-0.784,0.668-1.401,1.328-1.741l0,0c-0.518-0.535-0.781-1.297-0.656-2.091l0,0l0,0
	l0,0c0.115-0.794,0.596-1.448,1.254-1.81l0,0c-0.537-0.523-0.84-1.275-0.744-2.078l0,0l0,0l0,0c0.096-0.803,0.564-1.479,1.203-1.858
	l0,0c-0.557-0.513-0.871-1.265-0.805-2.065l0,0c0.074-0.812,0.523-1.498,1.16-1.896l0,0c-0.564-0.494-0.908-1.244-0.854-2.045l0,0
	c0,0,0,0,0.012,0l0,0c0.043-0.823,0.482-1.517,1.119-1.926l0,0c-0.586-0.493-0.928-1.232-0.893-2.044l0,0
	c0.045-0.812,0.473-1.516,1.1-1.936l0,0c-0.586-0.481-0.947-1.221-0.924-2.032l0,0c0.035-0.812,0.453-1.523,1.07-1.953l0,0
	c-0.596-0.473-0.959-1.211-0.943-2.022l0,0c0.025-0.821,0.443-1.534,1.061-1.974l0,0c-0.605-0.461-0.988-1.199-0.975-2.021l0,0
	c0.016-0.811,0.424-1.533,1.041-1.973l0,0c-0.605-0.471-0.988-1.199-0.984-2.011l0,0c0.016-0.82,0.412-1.543,1.029-1.993l0,0
	c-0.615-0.46-0.998-1.189-0.994-2.01l0,0c-0.004-0.82,0.393-1.542,1.01-1.992l0,0c-0.615-0.461-1.008-1.18-1.002-2l0,0
	c-0.006-0.82,0.391-1.553,0.998-2.002l0,0c-0.605-0.461-1.008-1.189-1.014-2.01l0,0c0.004-0.82,0.393-1.542,1.008-2.002l0,0
	c-0.613-0.451-1.018-1.179-1.012-2l0,0c-0.006-0.83,0.381-1.553,0.998-2.012l0,0c-0.615-0.461-1.018-1.188-1.012-2.009l0,0l0,0l0,0
	c-0.006-0.821,0.391-1.553,1.006-2.013l0,0c-0.613-0.451-1.016-1.189-1.012-2.01l0,0c0.004-0.83,0.412-1.562,1.029-2.012l0,0
	c-0.617-0.473-1.008-1.211-0.996-2.041l0,0l0,0l0,0c0.016-0.831,0.441-1.564,1.07-2.004l0,0c-0.607-0.491-0.99-1.25-0.947-2.082l0,0
	c0.043-0.871,0.512-1.606,1.199-2.028l0,0c-0.629-0.56-0.945-1.432-0.783-2.317l0,0c0.182-0.975,0.918-1.709,1.811-1.956l0,0
	c-0.402-0.669-0.479-1.526-0.131-2.297l0,0c0.338-0.741,0.982-1.241,1.707-1.413l0,0c-0.371-0.65-0.436-1.457-0.119-2.198l0,0
	c0.531-1.276,2.002-1.872,3.27-1.331l0,0c1.279,0.539,1.865,2.002,1.334,3.279l0,0c-0.328,0.76-0.98,1.281-1.736,1.455l0,0
	c0.381,0.668,0.447,1.506,0.111,2.257l0,0c-0.328,0.711-0.934,1.2-1.639,1.392l0,0c0.297,0.5,0.426,1.117,0.305,1.741l0,0
	c-0.139,0.726-0.57,1.318-1.158,1.667l0,0c0.535,0.494,0.855,1.204,0.82,1.986h0.01c-0.045,0.801-0.463,1.504-1.07,1.934l0,0
	c0.586,0.461,0.969,1.189,0.953,2.001l0,0c-0.014,0.811-0.422,1.533-1.029,1.983l0,0c0.604,0.451,0.998,1.18,0.994,1.999l0,0
	c-0.006,0.821-0.404,1.544-1.01,2.003l0,0c0.604,0.451,1.008,1.18,1.004,1.999l0,0c0.004,0.821-0.383,1.543-1,2.003l0,0
	c0.613,0.451,1.018,1.18,1.014,1.998l0,0c0.004,0.821-0.393,1.553-1,2.014l0,0c0.615,0.451,1.018,1.179,1.014,2.009v-0.01
	c0.006,0.819-0.391,1.553-0.998,2.012l0,0c0.615,0.462,1.008,1.188,1.014,2.009l0,0c-0.006,0.821-0.402,1.554-1.018,2.014l0,0
	c0.613,0.451,1.006,1.189,1.002,2.01l0,0c-0.004,0.82-0.402,1.554-1.02,2.002l0,0c0.615,0.461,0.998,1.199,0.994,2.021l0,0
	c-0.004,0.831-0.412,1.554-1.039,2.003l0,0c0.615,0.462,0.998,1.2,0.984,2.021v0.01c-0.016,0.82-0.432,1.545-1.059,1.994l0,0
	c0.605,0.471,0.988,1.209,0.973,2.041l0,0c-0.023,0.82-0.441,1.543-1.068,1.982l0,0c0.596,0.473,0.969,1.221,0.934,2.043l0,0
	c-0.033,0.831-0.461,1.545-1.1,1.975l0,0c0.596,0.492,0.959,1.24,0.916,2.072l0,0c-0.035,0.822-0.473,1.535-1.119,1.956l0,0
	c0.584,0.492,0.939,1.252,0.885,2.084l0,0c-0.055,0.821-0.514,1.536-1.16,1.946l0,0c0.574,0.503,0.92,1.272,0.844,2.105l0,0
	c-0.072,0.822-0.541,1.527-1.209,1.918l0,0c0.566,0.523,0.891,1.303,0.795,2.137l0,0c-0.094,0.822-0.592,1.52-1.27,1.891l0,0
	c0.555,0.542,0.861,1.344,0.736,2.168l0,0c-0.133,0.834-0.652,1.51-1.352,1.862l0,0c0.535,0.563,0.803,1.376,0.637,2.202l0,0
	c-0.164,0.834-0.732,1.493-1.453,1.806l0,0c0.508,0.614,0.715,1.458,0.49,2.276l0,0c-0.234,0.837-0.865,1.457-1.637,1.711l0,0
	c0.459,0.676,0.588,1.562,0.252,2.373h-0.01c-0.344,0.842-1.098,1.395-1.934,1.512l0,0c0.355,0.809,0.266,1.771-0.303,2.529l0,0
	c-0.613,0.811-1.635,1.132-2.561,0.921l0,0c-0.029,1.032-0.709,1.974-1.74,2.305l0,0c-0.99,0.312-2.021-0.018-2.656-0.758l0,0
	c-0.439,0.624-1.158,1.026-1.957,1.052l0,0C183.932,28.033,183.862,28.035,183.791,28.028z"/>
<path class="st17" d="M69.936,16.441c0,0,16.57,3.404,37.271-3.249c0,0,0.62-5.246,0.449-10.728c0,0,8.659-7.326,6.562-15.885
	c-3.852-4.962-6.907-7.289-14.35-16.018c-4.338-5.093-8.219-12.289-10.089-13.537c-1.866-1.25-7.938-3.15-7.938-3.15
	s1.656,2.822,3.54,4.594c1.885,1.771,13.25,16.4,17.336,25.764c-7.211-5.002-24.082-15.886-27.934-22.037
	c-3.848-6.153-14.773-12.869-16.877-13.326c-2.105-0.457-4.658,1.452-4.658,1.452l4.193,0.392c0,0,34.438,31.857,2.396,43.566
	c0,0,6.018,17.061,9.444,18L69.936,16.441z"/>
<path class="st21" d="M165.811,32.127c-0.945-0.15-1.688-0.816-1.973-1.659l0,0c-0.734,0.493-1.713,0.584-2.557,0.149v0.01
	c-0.824-0.434-1.318-1.259-1.355-2.119l0,0c-0.812,0.266-1.738,0.115-2.428-0.494l0,0c-0.678-0.589-0.965-1.471-0.82-2.296l0,0
	c-0.828,0.097-1.689-0.218-2.24-0.921h-0.012c-0.551-0.703-0.68-1.6-0.404-2.387l0,0c-0.861-0.045-1.676-0.529-2.092-1.347l0,0
	c-0.638-1.222-0.164-2.736,1.066-3.374l0,0c1.221-0.629,2.727-0.156,3.365,1.075l0,0c0,0,0,0,0.01-0.001l0,0
	c0.33,0.631,0.352,1.352,0.131,1.977l0,0c0.691,0.029,1.373,0.349,1.83,0.934l0,0l0,0l0,0c0.469,0.576,0.631,1.303,0.512,1.977l0,0
	c0.678-0.082,1.383,0.117,1.939,0.6l0,0c0.535,0.475,0.824,1.115,0.855,1.774l0,0c0.613-0.198,1.314-0.171,1.936,0.149l0,0
	c0.6,0.312,1.018,0.83,1.225,1.423l0,0c0.5-0.345,1.145-0.505,1.799-0.405l0,0c0.604,0.102,1.113,0.395,1.486,0.824l0,0
	c0.287-0.4,0.697-0.723,1.203-0.898l0,0c0,0,0,0,0,0.01l0,0c0.494-0.176,1.004-0.18,1.469-0.055l0,0
	c0.033-0.531,0.227-1.058,0.604-1.5l0,0c0.443-0.515,1.055-0.803,1.693-0.854l0,0c-0.229-0.623-0.211-1.334,0.109-1.974l0,0l0,0l0,0
	c0.34-0.671,0.945-1.13,1.621-1.301l0,0c-0.359-0.609-0.463-1.376-0.205-2.095l0,0c0.258-0.738,0.82-1.287,1.514-1.527l0,0
	c-0.439-0.598-0.613-1.371-0.406-2.129l0,0l0,0l0,0c0.205-0.777,0.748-1.364,1.43-1.655l0,0c-0.479-0.575-0.703-1.349-0.527-2.124
	l0,0c0.166-0.786,0.686-1.412,1.357-1.733l0,0c-0.508-0.555-0.752-1.327-0.617-2.122l0,0c0.146-0.795,0.646-1.44,1.316-1.781l0,0
	c-0.518-0.545-0.793-1.316-0.678-2.11l0,0c0.127-0.804,0.617-1.46,1.285-1.821l0,0c-0.537-0.533-0.83-1.305-0.725-2.107l0,0
	c0.115-0.805,0.594-1.47,1.252-1.84l0,0c-0.545-0.533-0.85-1.295-0.754-2.098l0,0l0,0l0,0c0.104-0.814,0.574-1.488,1.221-1.869l0,0
	c-0.545-0.523-0.859-1.283-0.775-2.098l0,0c0,0,0,0,0.012,0.01l0,0c0.084-0.812,0.553-1.497,1.201-1.888l0,0
	c-0.555-0.513-0.879-1.272-0.795-2.087l0,0c0.086-0.812,0.543-1.486,1.191-1.887l0,0c-0.557-0.514-0.879-1.273-0.795-2.088l0,0
	c0,0,0,0,0,0.01l0,0c0.074-0.821,0.545-1.506,1.193-1.906l0,0c-0.566-0.503-0.891-1.273-0.816-2.086l0,0
	c0.074-0.812,0.543-1.508,1.191-1.898l0,0c-0.564-0.512-0.889-1.273-0.814-2.096l0,0c0.084-0.812,0.543-1.507,1.191-1.897l0,0
	c-0.566-0.513-0.891-1.284-0.805-2.097l0,0c0.072-0.822,0.543-1.507,1.201-1.898l0,0c-0.566-0.522-0.891-1.282-0.807-2.105l0,0
	c0.084-0.823,0.555-1.508,1.213-1.898l0,0c-0.566-0.522-0.881-1.283-0.787-2.107l0,0c0.084-0.822,0.564-1.508,1.232-1.889l0,0
	c-0.566-0.522-0.871-1.303-0.775-2.127l0,0c0.104-0.812,0.594-1.498,1.262-1.88l0,0c-0.557-0.532-0.852-1.313-0.736-2.138l0,0
	c0.104-0.813,0.613-1.49,1.293-1.861l0,0c-0.547-0.543-0.832-1.335-0.697-2.16l0,0c0.133-0.823,0.652-1.48,1.344-1.832l0,0
	c-0.529-0.562-0.795-1.375-0.641-2.191l0,0l0,0l0,0c0.166-0.824,0.717-1.473,1.426-1.795l0,0c-0.518-0.594-0.744-1.417-0.549-2.234
	l0,0c0.203-0.837,0.795-1.465,1.537-1.748l0,0c-0.49-0.635-0.668-1.49-0.393-2.299l0,0l0,0l0,0c0.266-0.839,0.936-1.43,1.721-1.635
	l0,0c-0.432-0.706-0.5-1.615-0.115-2.407l0,0c0,0,0,0,0-0.01l0,0c0.414-0.834,1.229-1.329,2.098-1.386l0,0
	c-0.287-0.871-0.078-1.857,0.611-2.551l0,0l0,0l0,0c0.98-0.971,2.562-0.97,3.531,0.012l0,0c0.973,0.979,0.971,2.561-0.01,3.542l0,0
	c-0.447,0.443-1.02,0.681-1.607,0.72l0,0c0.197,0.594,0.168,1.266-0.131,1.875l0,0c-0.332,0.67-0.928,1.129-1.592,1.311l0,0
	c0.369,0.608,0.482,1.355,0.244,2.083l0,0c-0.246,0.737-0.799,1.295-1.482,1.556l0,0c0.449,0.576,0.633,1.352,0.447,2.117l0,0
	c-0.186,0.777-0.719,1.374-1.398,1.686l0,0c0.496,0.554,0.73,1.327,0.576,2.113l0,0c-0.156,0.795-0.666,1.42-1.336,1.762l0,0
	c0.516,0.545,0.781,1.316,0.654,2.11l0,0c-0.135,0.804-0.625,1.45-1.283,1.812l0,0c0.525,0.533,0.811,1.295,0.705,2.1l0,0
	c-0.115,0.803-0.596,1.468-1.254,1.839l0,0c0.537,0.524,0.84,1.294,0.734,2.099l0,0c-0.094,0.812-0.562,1.479-1.223,1.857l0,0
	c0.547,0.523,0.861,1.285,0.777,2.098l0,0c-0.096,0.813-0.564,1.488-1.213,1.878l0,0c0.557,0.514,0.869,1.274,0.785,2.087l0,0
	c-0.074,0.812-0.545,1.498-1.193,1.889l0,0c0.557,0.513,0.881,1.273,0.807,2.096l0,0c-0.086,0.813-0.543,1.498-1.191,1.889l0,0
	c0.555,0.512,0.879,1.272,0.805,2.096l0,0c-0.074,0.812-0.533,1.496-1.182,1.896l0,0c0.557,0.514,0.889,1.273,0.807,2.097l0,0
	c-0.076,0.813-0.535,1.497-1.193,1.898l0,0c0.566,0.512,0.891,1.272,0.816,2.096l0,0c-0.086,0.812-0.543,1.507-1.191,1.897l0,0
	c0.555,0.513,0.879,1.283,0.795,2.096l0,0c-0.084,0.814-0.553,1.508-1.211,1.899l0,0c0.564,0.512,0.879,1.282,0.795,2.106l0,0
	c-0.094,0.823-0.564,1.497-1.232,1.889l0,0c0.557,0.522,0.871,1.304,0.775,2.117l0,0c-0.104,0.822-0.582,1.498-1.252,1.879l0,0
	c0.559,0.533,0.852,1.314,0.748,2.139l0,0c-0.115,0.813-0.605,1.489-1.283,1.859l0,0c0.547,0.545,0.832,1.336,0.707,2.15l0,0
	c-0.125,0.824-0.635,1.49-1.324,1.852l0,0c0.539,0.555,0.812,1.346,0.668,2.17l0,0c-0.154,0.826-0.684,1.482-1.385,1.814l0,0
	c0.529,0.574,0.775,1.387,0.6,2.202l0,0c-0.176,0.826-0.734,1.464-1.455,1.776l0,0c0.498,0.605,0.715,1.428,0.5,2.246l0,0
	c-0.215,0.826-0.826,1.445-1.568,1.709l0,0c0.471,0.646,0.627,1.501,0.342,2.311l0,0c-0.285,0.818-0.957,1.4-1.74,1.594l0,0
	c0.42,0.709,0.479,1.606,0.094,2.398l0,0c-0.404,0.813-1.201,1.309-2.039,1.374l0,0c0.297,0.821,0.145,1.776-0.463,2.487l0,0
	c-0.646,0.749-1.648,1.021-2.547,0.779l0,0c-0.049,0.98-0.682,1.871-1.672,2.223l0,0c-0.99,0.34-2.051,0.023-2.703-0.717l0,0
	c-0.441,0.613-1.16,1.006-1.939,1.031l0,0C166.133,32.168,165.971,32.152,165.811,32.127z"/>
<path class="st16" d="M183.606,26.873c-0.832-0.055-1.465-0.766-1.41-1.586l0,0c0.045-0.832,0.756-1.465,1.578-1.41l0,0
	c0.83,0.044,1.465,0.754,1.41,1.576l0,0c-0.047,0.783-0.678,1.393-1.447,1.416l0,0C183.696,26.87,183.647,26.872,183.606,26.873z
	 M186.19,25.642c-0.246-0.793,0.199-1.637,0.982-1.882l0,0c0.791-0.255,1.635,0.188,1.891,0.981l0,0
	c0.244,0.783-0.201,1.628-0.982,1.881l0,0c-0.139,0.035-0.277,0.059-0.408,0.062l0,0C187.012,26.707,186.399,26.297,186.19,25.642z
	 M179.428,26.322c-0.816-0.164-1.332-0.969-1.166-1.774l0,0c0.164-0.815,0.959-1.331,1.773-1.166l0,0l0,0l0,0
	c0.816,0.165,1.332,0.959,1.166,1.774l0,0c-0.148,0.695-0.744,1.174-1.424,1.195l0,0C179.656,26.355,179.547,26.348,179.428,26.322z
	 M175.358,25.129L175.358,25.129c-0.77-0.297-1.156-1.166-0.861-1.936l0,0c0.297-0.77,1.166-1.156,1.936-0.86l0,0
	c0.77,0.297,1.166,1.165,0.871,1.934l0,0c-0.232,0.578-0.773,0.945-1.361,0.964l0,0C175.752,25.236,175.551,25.203,175.358,25.129z
	 M189.789,24.029c-0.664-0.499-0.795-1.445-0.285-2.102l0,0l0,0l0,0c0.5-0.656,1.438-0.785,2.104-0.286l0,0
	c0.656,0.501,0.785,1.437,0.285,2.103l0,0c-0.289,0.369-0.713,0.572-1.152,0.586l0,0C190.41,24.341,190.067,24.24,189.789,24.029z
	 M171.539,23.286L171.539,23.286c-0.715-0.429-0.953-1.341-0.523-2.056l0,0c0.418-0.713,1.33-0.951,2.043-0.533l0,0c0,0,0,0,0.012,0
	l0,0c0.701,0.428,0.941,1.342,0.523,2.055l0,0c-0.277,0.468-0.748,0.723-1.248,0.738l0,0
	C172.065,23.5,171.793,23.437,171.539,23.286z M192.039,20.738c-0.76-0.327-1.127-1.196-0.801-1.967l0,0
	c0.316-0.77,1.195-1.127,1.955-0.811l0,0c0.771,0.326,1.129,1.196,0.811,1.967l0,0c-0.232,0.557-0.771,0.904-1.34,0.922l0,0
	C192.453,20.855,192.242,20.822,192.039,20.738z M168.08,20.822c-0.637-0.531-0.717-1.479-0.186-2.105l0,0
	c0.531-0.638,1.479-0.717,2.115-0.187l0,0l0,0l0,0c0.637,0.531,0.717,1.479,0.176,2.116l0,0c-0.279,0.339-0.684,0.521-1.094,0.533
	l0,0C168.733,21.191,168.369,21.072,168.08,20.822z M165.067,17.834L165.067,17.834c-0.541-0.635-0.459-1.586,0.174-2.117l0,0
	c0.625-0.539,1.566-0.458,2.107,0.166l0,0c0.539,0.633,0.469,1.576-0.166,2.116l0,0c-0.271,0.228-0.598,0.348-0.928,0.358l0,0
	C165.813,18.371,165.377,18.194,165.067,17.834z M193.504,17.001c-0.797-0.226-1.264-1.052-1.047-1.849l0,0
	c0.225-0.797,1.051-1.263,1.848-1.037l0,0c0.797,0.215,1.262,1.041,1.049,1.838l0,0c-0.18,0.656-0.768,1.084-1.398,1.104l0,0
	C193.807,17.062,193.655,17.046,193.504,17.001z M162.574,14.259c-0.373-0.749-0.082-1.647,0.658-2.021l0,0
	c0.738-0.373,1.637-0.071,2.021,0.668l0,0c0.363,0.738,0.07,1.638-0.668,2.012l0,0c-0.207,0.105-0.416,0.152-0.627,0.159l0,0
	C163.391,15.094,162.842,14.791,162.574,14.259z M194.533,13.127c-0.814-0.164-1.338-0.959-1.174-1.764l0,0
	c0.164-0.816,0.947-1.341,1.766-1.176l0,0c0.814,0.165,1.338,0.949,1.174,1.764l0,0c-0.148,0.695-0.744,1.184-1.424,1.205l0,0
	C194.766,13.16,194.645,13.144,194.533,13.127z M195.293,9.191c-0.824-0.123-1.389-0.896-1.264-1.711l0,0
	c0.125-0.814,0.889-1.379,1.711-1.255l0,0c0.814,0.116,1.379,0.879,1.254,1.702l0,0c-0.107,0.724-0.721,1.254-1.432,1.275l0,0
	C195.473,9.206,195.383,9.198,195.293,9.191z M195.869,5.22c-0.822-0.094-1.416-0.836-1.322-1.669l0,0c0,0,0,0,0.01-0.001l0,0
	c0.096-0.812,0.838-1.406,1.66-1.312l0,0c0.822,0.095,1.408,0.837,1.312,1.661l0,0c-0.086,0.752-0.709,1.303-1.439,1.324l0,0
	C196.02,5.227,195.94,5.23,195.869,5.22z M196.317,1.236c-0.822-0.074-1.436-0.806-1.361-1.629l0,0
	c0.074-0.822,0.797-1.436,1.629-1.361l0,0c0.822,0.074,1.434,0.797,1.361,1.629l0,0c-0.078,0.763-0.699,1.342-1.449,1.365l0,0
	C196.438,1.242,196.377,1.244,196.317,1.236z M196.662-2.768c-0.832-0.054-1.455-0.764-1.4-1.586l0,0
	c0.055-0.832,0.775-1.455,1.598-1.4l0,0c0.832,0.055,1.455,0.775,1.4,1.597l0,0c-0.057,0.772-0.688,1.372-1.447,1.396l0,0
	C196.762-2.76,196.713-2.758,196.662-2.768z M196.918-6.766c-0.82-0.035-1.463-0.745-1.42-1.567l0,0c0,0,0,0,0-0.01l0,0
	c0.045-0.822,0.756-1.455,1.576-1.42l0,0c0.832,0.044,1.465,0.755,1.42,1.577l0,0c-0.035,0.781-0.676,1.401-1.445,1.426l0,0
	C197.008-6.76,196.969-6.758,196.918-6.766z M197.123-10.765c-0.83-0.034-1.473-0.735-1.447-1.556l0,0
	c0.033-0.832,0.734-1.473,1.555-1.449l0,0c0.832,0.034,1.475,0.734,1.449,1.555l0,0c-0.035,0.803-0.676,1.423-1.455,1.447l0,0
	C197.184-10.767,197.155-10.766,197.123-10.765z M197.27-14.772c-0.83-0.014-1.482-0.703-1.457-1.535l0,0
	c0.014-0.831,0.703-1.482,1.535-1.459l0,0c0.83,0.024,1.482,0.715,1.459,1.535l0,0c-0.027,0.803-0.668,1.442-1.455,1.467l0,0
	C197.33-14.764,197.301-14.762,197.27-14.772z M197.365-18.785c-0.82-0.016-1.482-0.695-1.467-1.526l0,0l0,0l0,0
	c0.014-0.831,0.693-1.491,1.523-1.468l0,0c0.832,0.015,1.492,0.694,1.469,1.525l0,0c-0.016,0.801-0.656,1.441-1.445,1.466l0,0
	C197.424-18.787,197.395-18.787,197.365-18.785z M197.43-22.789c-0.818-0.016-1.49-0.686-1.477-1.516l0,0l0,0l0,0
	c0.004-0.831,0.684-1.502,1.516-1.487l0,0c0.828,0.003,1.492,0.683,1.477,1.515l0,0c-0.004,0.811-0.645,1.461-1.455,1.486l0,0
	C197.471-22.791,197.461-22.791,197.43-22.789z M197.477-26.804c-0.83-0.003-1.502-0.673-1.496-1.505l0,0
	c0.002-0.83,0.672-1.5,1.504-1.496l0,0c0.83,0.004,1.5,0.684,1.496,1.504l0,0c-0.004,0.82-0.654,1.471-1.453,1.496l0,0
	C197.506-26.805,197.487-26.805,197.477-26.804z M197.483-30.816c-0.82,0.006-1.492-0.675-1.498-1.495l0,0
	c0.006-0.83,0.674-1.5,1.504-1.497l0,0c0.832-0.005,1.492,0.664,1.498,1.494l0,0c0.004,0.812-0.645,1.472-1.455,1.497l0,0
	C197.522-30.817,197.502-30.817,197.483-30.816z M197.489-34.819c-0.83-0.004-1.502-0.673-1.508-1.504l0,0l0,0l0,0
	c-0.006-0.82,0.664-1.501,1.494-1.496l0,0c0.83-0.006,1.502,0.663,1.508,1.494l0,0c0.004,0.811-0.645,1.48-1.455,1.506l0,0
	C197.508-34.819,197.498-34.819,197.489-34.819z M197.473-38.828c-0.83-0.006-1.5-0.674-1.508-1.495l0,0l0,0l0,0
	c-0.004-0.83,0.664-1.511,1.496-1.507l0,0c0.83-0.006,1.5,0.664,1.506,1.494l0,0c0.006,0.81-0.645,1.48-1.453,1.506l0,0
	C197.504-38.83,197.485-38.829,197.473-38.828z M197.459-42.851c-0.83,0.006-1.502-0.664-1.508-1.495l0,0l0,0l0,0
	c-0.006-0.828,0.674-1.5,1.494-1.496l0,0c0.83-0.006,1.502,0.664,1.508,1.494l0,0c0.006,0.811-0.645,1.481-1.455,1.506l0,0
	C197.489-42.841,197.469-42.852,197.459-42.851z M197.455-46.863c-0.832,0.007-1.504-0.674-1.498-1.505l0,0c0,0,0,0-0.01,0.001l0,0
	c0.004-0.831,0.682-1.503,1.514-1.497l0,0c0.83,0.004,1.492,0.684,1.498,1.503l0,0c-0.006,0.812-0.656,1.472-1.455,1.497l0,0
	C197.485-46.864,197.465-46.864,197.455-46.863z M197.469-50.875c-0.83-0.014-1.492-0.694-1.477-1.525l0,0
	c0.004-0.83,0.693-1.481,1.525-1.468l0,0c0.818,0.005,1.48,0.685,1.467,1.517l0,0c-0.004,0.81-0.654,1.45-1.445,1.475l0,0
	C197.51-50.876,197.49-50.875,197.469-50.875z M197.535-54.889c-0.832-0.044-1.465-0.745-1.43-1.576l0,0
	c0.045-0.822,0.746-1.465,1.566-1.42l0,0c0.832,0.034,1.475,0.735,1.43,1.567l0,0c-0.035,0.78-0.678,1.401-1.447,1.425l0,0
	C197.615-54.891,197.574-54.89,197.535-54.889z M197.701-58.916c-0.816-0.145-1.352-0.938-1.197-1.754l0,0c0,0,0,0,0.002,0.011l0,0
	c0.154-0.815,0.938-1.35,1.752-1.196l0,0c0.816,0.146,1.352,0.929,1.195,1.745l0.002,0.01c-0.129,0.694-0.744,1.192-1.434,1.214l0,0
	C197.922-58.883,197.811-58.889,197.701-58.916z M198.873-62.715c-0.762-0.336-1.1-1.226-0.752-1.977l0,0
	c0.336-0.762,1.217-1.098,1.977-0.752l0,0c0.762,0.336,1.1,1.227,0.754,1.977l0,0c-0.244,0.539-0.764,0.875-1.324,0.893l0,0
	C199.307-62.568,199.086-62.611,198.873-62.715z M200.5-66.365c-0.76-0.318-1.117-1.197-0.791-1.957l0,0
	c0.326-0.771,1.195-1.128,1.967-0.803l0,0c0.76,0.328,1.117,1.207,0.791,1.967l0,0c-0.232,0.558-0.764,0.895-1.332,0.912l0,0
	C200.926-66.24,200.703-66.273,200.5-66.365z"/>
<path class="st16" d="M165.725,30.98L165.725,30.98c-0.814-0.135-1.379-0.898-1.244-1.723l0,0c0.135-0.814,0.898-1.369,1.723-1.244
	l0,0c0.814,0.135,1.369,0.908,1.244,1.722l0,0c-0.117,0.725-0.732,1.244-1.441,1.267l0,0
	C165.914,31.004,165.824,30.996,165.725,30.98z M168.449,29.814c-0.273-0.781,0.141-1.635,0.922-1.909l0,0l0,0l0,0
	c0.781-0.274,1.635,0.14,1.91,0.921l0,0c0.273,0.781-0.141,1.635-0.922,1.909l0,0c-0.148,0.056-0.299,0.079-0.449,0.085l0,0
	C169.272,30.84,168.67,30.447,168.449,29.814z M161.498,29.57c-0.742-0.377-1.029-1.289-0.643-2.021l0,0
	c0.377-0.742,1.279-1.03,2.021-0.652l0,0c0,0,0,0,0,0.01l0,0c0.732,0.378,1.02,1.279,0.643,2.021l0,0
	c-0.264,0.498-0.766,0.793-1.285,0.809l0,0C161.985,29.744,161.733,29.693,161.498,29.57z M172.031,28.181
	c-0.627-0.539-0.697-1.488-0.156-2.115l0,0c0.541-0.627,1.488-0.696,2.117-0.156l0,0c0.627,0.541,0.695,1.49,0.154,2.116l0,0
	c-0.289,0.329-0.684,0.513-1.094,0.524l0,0C172.694,28.562,172.328,28.433,172.031,28.181z M157.91,27.1
	c-0.617-0.541-0.686-1.489-0.135-2.117l0,0c0.539-0.627,1.488-0.696,2.105-0.146l0,0l0,0l0,0c0.627,0.541,0.697,1.489,0.146,2.117
	l0,0c-0.281,0.329-0.676,0.501-1.084,0.514l0,0C158.582,27.48,158.209,27.361,157.91,27.1z M174.494,25.045
	c-0.742-0.367-1.039-1.268-0.672-2.011l0,0l0,0l0,0c0.367-0.741,1.268-1.04,2.01-0.672l0,0c0.742,0.367,1.041,1.269,0.672,2.009l0,0
	c-0.254,0.509-0.766,0.814-1.305,0.832l0,0C174.971,25.209,174.719,25.158,174.494,25.045z M154.973,24.01L154.973,24.01
	c-0.52-0.653-0.41-1.598,0.234-2.108l0,0c0.645-0.521,1.59-0.409,2.109,0.235l0,0c0.51,0.645,0.408,1.588-0.234,2.108l0,0
	c-0.264,0.208-0.582,0.317-0.891,0.327l0,0C155.733,24.586,155.276,24.39,154.973,24.01z M176.203,21.42
	c-0.789-0.266-1.195-1.123-0.93-1.902l0,0c0.275-0.789,1.133-1.195,1.912-0.93l0,0c0.779,0.275,1.195,1.134,0.93,1.912l0,0
	c-0.211,0.607-0.77,0.984-1.379,1.004l0,0C176.557,21.51,176.375,21.484,176.203,21.42z M152.571,20.433v0.01
	c-0.383-0.739-0.09-1.648,0.648-2.031l0,0c0.729-0.383,1.639-0.092,2.02,0.647l0,0c0.375,0.729,0.092,1.638-0.646,2.021l0,0
	c-0.207,0.107-0.426,0.164-0.635,0.17l0,0C153.397,21.267,152.848,20.965,152.571,20.433z M177.477,17.619
	c-0.809-0.216-1.283-1.031-1.068-1.829l0,0c0.215-0.807,1.031-1.282,1.838-1.067l0,0c0.797,0.216,1.271,1.031,1.057,1.839
	l0.012-0.001c-0.18,0.656-0.768,1.096-1.406,1.115l0,0C177.758,17.679,177.617,17.664,177.477,17.619z M178.477,13.736
	c-0.816-0.175-1.332-0.971-1.156-1.775l0,0c0.174-0.816,0.969-1.331,1.785-1.156l0,0c0.805,0.176,1.32,0.969,1.145,1.775v0.01
	c-0.148,0.686-0.744,1.164-1.414,1.185l0,0C178.717,13.778,178.596,13.761,178.477,13.736z M179.293,9.808
	c-0.814-0.145-1.359-0.918-1.213-1.732l0,0c0.145-0.826,0.918-1.359,1.732-1.215l0,0c0.824,0.145,1.359,0.918,1.215,1.732h0.01
	c-0.127,0.715-0.742,1.224-1.432,1.245l0,0C179.496,9.842,179.395,9.836,179.293,9.808z M179.983,5.865
	c-0.824-0.125-1.389-0.898-1.264-1.711l0,0c0.123-0.825,0.896-1.39,1.711-1.254l0,0c0.824,0.114,1.379,0.888,1.254,1.701l0,0
	c-0.107,0.725-0.723,1.254-1.432,1.275l0,0C180.162,5.88,180.073,5.872,179.983,5.865z M180.571,1.894
	c-0.824-0.104-1.398-0.867-1.283-1.68l0,0l0,0l0,0c0.104-0.824,0.857-1.398,1.68-1.293l0,0c0.824,0.104,1.398,0.867,1.293,1.68l0,0
	c-0.098,0.744-0.721,1.283-1.439,1.307l0,0C180.74,1.91,180.66,1.902,180.571,1.894z M181.096-2.084
	c-0.824-0.094-1.416-0.846-1.312-1.66l0,0c0.096-0.822,0.836-1.416,1.66-1.312l0,0c0.824,0.095,1.416,0.837,1.312,1.66l0,0
	c-0.088,0.753-0.709,1.304-1.439,1.325l0,0C181.237-2.068,181.166-2.076,181.096-2.084z M181.563-6.06
	c-0.822-0.095-1.416-0.837-1.332-1.659l0,0c0.084-0.823,0.826-1.416,1.65-1.322l0,0c0.822,0.086,1.426,0.826,1.332,1.648l0,0
	c-0.088,0.754-0.711,1.313-1.441,1.336l0,0C181.703-6.055,181.633-6.053,181.563-6.06z M181.99-10.045
	c-0.824-0.084-1.428-0.826-1.342-1.649l0,0c0.084-0.822,0.814-1.425,1.639-1.341l0,0c0.822,0.084,1.426,0.816,1.342,1.648l0,0
	c-0.078,0.754-0.699,1.322-1.439,1.346l0,0C182.119-10.039,182.059-10.037,181.99-10.045z M182.385-14.029
	c-0.822-0.075-1.426-0.816-1.34-1.64l0,0c0.074-0.822,0.805-1.426,1.629-1.342l0,0c0.832,0.075,1.426,0.807,1.35,1.629l0,0
	c-0.064,0.764-0.697,1.333-1.438,1.355l0,0C182.516-14.023,182.457-14.022,182.385-14.029z M182.772-18.024
	c-0.822-0.073-1.436-0.805-1.352-1.629l0,0l0,0l0,0c0.074-0.822,0.807-1.436,1.639-1.351l0,0c0.824,0.073,1.426,0.806,1.352,1.629
	l0,0c-0.076,0.763-0.707,1.332-1.447,1.354l0,0C182.903-18.018,182.832-18.015,182.772-18.024z M183.149-22.016
	c-0.822-0.075-1.426-0.807-1.352-1.631l0,0l0,0l0,0c0.074-0.831,0.805-1.434,1.639-1.351l0,0c0.822,0.075,1.426,0.808,1.352,1.629
	l0,0c-0.076,0.763-0.709,1.343-1.449,1.366l0,0C183.278-22,183.209-22.008,183.149-22.016z M183.526-26
	c-0.822-0.084-1.426-0.816-1.342-1.639l0,0c0,0,0,0-0.01,0l0,0c0.084-0.823,0.816-1.427,1.639-1.352l0,0
	c0.822,0.084,1.436,0.815,1.352,1.639l0,0c-0.078,0.763-0.699,1.332-1.449,1.355l0,0C183.655-25.994,183.586-26.002,183.526-26z
	 M183.91-29.994c-0.822-0.084-1.416-0.826-1.34-1.64l0,0c0.084-0.831,0.824-1.426,1.648-1.352l0,0
	c0.822,0.095,1.426,0.826,1.342,1.649l0,0c-0.076,0.763-0.711,1.322-1.449,1.346l0,0C184.051-29.989,183.981-29.987,183.91-29.994z
	 M184.326-33.99c-0.822-0.084-1.426-0.826-1.33-1.648l0,0c0.094-0.823,0.836-1.417,1.66-1.323l0,0
	c0.822,0.085,1.416,0.826,1.32,1.65l0,0c-0.076,0.753-0.709,1.312-1.439,1.336l0,0C184.469-33.973,184.399-33.982,184.326-33.99z
	 M184.764-37.965c-0.824-0.104-1.406-0.855-1.301-1.67l0,0l0,0l0,0c0.094-0.824,0.846-1.406,1.658-1.312l0,0
	c0.824,0.105,1.418,0.847,1.312,1.67l0,0c-0.086,0.744-0.709,1.293-1.439,1.315l0,0C184.914-37.959,184.844-37.957,184.764-37.965z
	 M185.262-41.951c-0.824-0.115-1.398-0.867-1.285-1.691l0,0c0.115-0.814,0.869-1.387,1.691-1.273l0,0
	c0.814,0.105,1.389,0.867,1.273,1.682l0,0c-0.098,0.744-0.721,1.272-1.43,1.295l0,0C185.422-41.938,185.342-41.935,185.262-41.951z
	 M185.819-45.921c-0.826-0.135-1.379-0.897-1.256-1.722l0,0c0.135-0.814,0.908-1.369,1.723-1.244l0,0
	c0.826,0.135,1.379,0.908,1.244,1.723l0,0c-0.117,0.724-0.73,1.243-1.43,1.265l0,0C186.01-45.897,185.908-45.904,185.819-45.921z
	 M186.455-49.882c-0.805-0.155-1.34-0.939-1.186-1.755l0,0c0.166-0.816,0.949-1.34,1.764-1.186l0,0
	c0.807,0.156,1.34,0.939,1.188,1.754l0,0c-0.139,0.705-0.744,1.195-1.426,1.216l0,0C186.686-49.85,186.576-49.857,186.455-49.882z
	 M187.244-53.809c-0.807-0.205-1.303-1.01-1.107-1.816l0,0c0.195-0.807,1.01-1.303,1.816-1.107l0,0
	c0.807,0.205,1.293,1.012,1.098,1.817l0,0c-0.16,0.675-0.756,1.124-1.406,1.144l0,0C187.516-53.768,187.373-53.782,187.244-53.809z
	 M188.213-57.701c-0.787-0.255-1.215-1.102-0.959-1.891l0,0c0.256-0.788,1.104-1.215,1.891-0.959l0,0
	c0.789,0.255,1.215,1.103,0.959,1.891l0,0c-0.199,0.617-0.768,1.014-1.377,1.033l0,0C188.555-57.622,188.385-57.647,188.213-57.701z
	 M189.496-61.492c-0.742-0.367-1.049-1.268-0.682-2.01l0,0c0.365-0.742,1.268-1.051,2.01-0.683l0,0
	c0.74,0.366,1.049,1.259,0.682,1.999v0.01c-0.254,0.508-0.764,0.814-1.305,0.831l0,0C189.961-61.338,189.721-61.379,189.496-61.492z
	 M191.317-65.061c-0.578-0.582-0.578-1.533,0.004-2.121l0,0l0,0l0,0c0.592-0.578,1.543-0.579,2.121,0.004l0,0
	c0.588,0.593,0.588,1.542-0.004,2.121l0,0c-0.281,0.279-0.637,0.43-1.006,0.441l0,0C192.031-64.603,191.625-64.75,191.317-65.061z"
	/>
<path class="st17" d="M97.705,31.793c-0.318,0.877-2.18,2.408-2.392,3.977c-0.212,1.566,0.759,2.145,1.174,1.523"/>
<path class="st8" d="M69.936,16.441c0,0,16.57,3.404,37.271-3.249c0,0,0.62-5.246,0.449-10.728c0,0,8.659-7.326,6.562-15.885
	c-3.852-4.962-6.907-7.289-14.35-16.018c-4.338-5.093-8.219-12.289-10.089-13.537c-1.866-1.25-7.938-3.15-7.938-3.15
	s1.656,2.822,3.54,4.594c1.885,1.771,13.25,16.4,17.336,25.764c-7.211-5.002-24.082-15.886-27.934-22.037
	c-3.848-6.153-14.773-12.869-16.877-13.326c-2.105-0.457-4.658,1.452-4.658,1.452l4.193,0.392c0,0,34.438,31.857,2.396,43.566
	c0,0,6.018,17.061,9.444,18L69.936,16.441z"/>
<linearGradient id="SVGID_4_" gradientUnits="userSpaceOnUse" x1="34.6204" y1="37.783" x2="175.1418" y2="37.783" gradientTransform="matrix(0.9995 -0.031 0.031 0.9995 4.1563 -45.6945)">
	<stop  offset="0" style="stop-color:#CE6E32"/>
	<stop  offset="0.0753" style="stop-color:#CF7438"/>
	<stop  offset="0.2203" style="stop-color:#D17A3E"/>
	<stop  offset="1" style="stop-color:#CD6B2C"/>
</linearGradient>
<path class="st13" d="M54.5-49.974c-3.926,0.122-10.28-2.038-13.498,4.089c-3.216,6.125-3.699,15.834,8.182,27.252
	C57.364-8.405,69.983,9.804,74.586,14.64c4.602,4.836,9.969,8.861,9.969,8.861s46.256-6.859,50.812-7.305
	c0,0,15.826,12.319,18.359,12.24c2.531-0.078,20.504-11.302,20.504-11.302l7.049-1.569c0,0-1.24-1.821-6.812-1.648
	c-5.568,0.173-14.297,2.137-15.141,2.162c-0.844,0.027-8.762-4.629-8.762-4.629s8.098-2.425,10.113-6.229
	c1.199-2.262,0.623-4.638-0.27-4.926c-0.996,0.537-4.135,4.556-7.664,5.172c-3.528,0.615-8.594,0.772-9.775,0.809
	c-3.547,0.11-7.03,1.65-7.03,1.65s-10.157,1.127-16.743,0.021c-6.583-1.105-27.406-4.584-31.76-1.305
	c0,0-10.815-19.314-13.834-23.674c-3.018-4.361-8.946-9.678-9.027-12.297c-0.082-2.617-1.26-6.773-1.26-6.773"/>
<path class="st21" d="M146.795,60.281c-0.137-0.205-0.244-0.423-0.311-0.641l0,0c-1.156,0.146-2.298-0.539-2.684-1.697l0,0
	c-0.286-0.861-0.074-1.769,0.475-2.416l0,0c-0.74-0.338-1.302-1.03-1.439-1.896l0,0c-0.125-0.836,0.17-1.636,0.743-2.185l0,0
	c-0.683-0.388-1.164-1.085-1.25-1.922l0,0c-0.087-0.837,0.251-1.608,0.834-2.126l0,0c-0.652-0.41-1.115-1.117-1.171-1.945l0,0
	c-0.055-0.818,0.301-1.58,0.887-2.078l0,0c-0.645-0.42-1.087-1.137-1.122-1.967v0.01c-0.045-0.828,0.321-1.58,0.906-2.068l0,0
	c-0.634-0.43-1.056-1.148-1.091-1.968l0,0c-0.025-0.819,0.341-1.571,0.937-2.05l0,0c-0.624-0.431-1.047-1.147-1.072-1.967l0,0
	c-0.025-0.82,0.343-1.562,0.937-2.041l0,0c-0.622-0.43-1.045-1.148-1.061-1.977l0,0c-0.026-0.83,0.361-1.572,0.967-2.043l0,0
	c-0.625-0.459-1.027-1.197-1.033-2.027l0,0c0.004-0.831,0.412-1.574,1.047-2.024l0,0c-0.614-0.481-0.998-1.239-0.955-2.081l0,0
	c0.035-0.842,0.482-1.576,1.149-1.997l0,0c-0.597-0.531-0.941-1.331-0.837-2.175l0,0c0.102-0.884,0.648-1.601,1.389-1.953l0,0
	c-0.57-0.643-0.799-1.557-0.516-2.436v0.01c0.328-1.061,1.297-1.742,2.348-1.754l0,0c-0.014-0.08-0.016-0.16-0.019-0.249l0,0
	c-0.043-1.38,1.042-2.534,2.421-2.577l0,0c1.379-0.043,2.533,1.043,2.576,2.422l0,0c0.043,1.379-1.041,2.533-2.42,2.576l0,0l0,0l0,0
	c-0.02,0-0.029,0.001-0.051,0.002l0,0c0.051,0.359,0.022,0.719-0.096,1.083l0,0l0,0l0,0c-0.21,0.687-0.693,1.212-1.295,1.501l0,0
	c0.467,0.516,0.719,1.219,0.621,1.961l0,0c0,0,0,0,0.01,0l0,0c-0.095,0.773-0.535,1.428-1.143,1.816l0,0
	c0.555,0.482,0.887,1.193,0.852,1.984l0,0c-0.036,0.791-0.434,1.494-1.041,1.924l0,0c0.584,0.462,0.967,1.17,0.961,1.971l0,0
	c0.005,0.811-0.372,1.523-0.969,1.98l0,0c0.604,0.443,1.006,1.15,1.031,1.949l0,0c0.025,0.82-0.352,1.553-0.938,2.021l0,0
	c0.614,0.44,1.036,1.147,1.062,1.967l0,0c0.025,0.819-0.342,1.553-0.938,2.031l0,0c0.625,0.431,1.047,1.137,1.072,1.957l0,0
	c0.035,0.818-0.322,1.551-0.908,2.029l0,0c0.625,0.43,1.047,1.127,1.092,1.946l0,0c0.034,0.81-0.312,1.551-0.889,2.028l0,0
	c0.625,0.422,1.065,1.107,1.121,1.916l0,0c0.055,0.81-0.282,1.551-0.838,2.047l0,0c0.633,0.4,1.084,1.078,1.16,1.876l0,0l0,0l0,0
	c0.074,0.798-0.223,1.538-0.758,2.045l0,0c0.633,0.37,1.112,1.006,1.227,1.793l0,0l0,0l0,0c0.123,0.746-0.114,1.474-0.568,2.008l0,0
	c0.609,0.282,1.105,0.806,1.338,1.489l0,0c0.01,0.02,0.01,0.029,0.011,0.049l0,0c0.07-0.012,0.14-0.014,0.21-0.016l0,0
	c-0.178-0.564-0.147-1.187,0.105-1.754l0,0l0,0l0,0c0.309-0.68,0.885-1.158,1.549-1.369l0,0c-0.399-0.588-0.533-1.344-0.315-2.072
	l0,0c0.218-0.756,0.759-1.323,1.432-1.613l0,0c-0.468-0.566-0.673-1.331-0.507-2.096l0,0c0,0,0,0-0.01,0l0,0
	c0.166-0.785,0.688-1.393,1.348-1.723l0,0c-0.507-0.545-0.761-1.307-0.635-2.092l0,0c0,0,0,0,0.01,0l0,0
	c0.125-0.795,0.606-1.43,1.254-1.79l0,0c-0.525-0.523-0.818-1.274-0.723-2.067l0,0c0.094-0.795,0.545-1.459,1.182-1.848l0,0
	c-0.545-0.504-0.869-1.234-0.812-2.037l0,0c0.055-0.791,0.484-1.475,1.092-1.884l0,0c-0.564-0.473-0.918-1.183-0.902-1.983l0,0l0,0
	l0,0c0.006-0.791,0.395-1.482,0.971-1.931l0,0c-0.604-0.452-1.008-1.17-1.023-1.989l0,0l0,0l0,0c-0.006-0.85,0.4-1.604,1.047-2.063
	l0,0c-0.625-0.491-1.008-1.259-0.965-2.112l0,0c0.053-0.861,0.541-1.597,1.227-2.008l0,0c-0.586-0.562-0.893-1.402-0.74-2.269l0,0
	c0.172-0.906,0.801-1.605,1.602-1.899l0,0c-0.521-0.725-0.643-1.702-0.229-2.555l0,0l0,0l0,0c0.461-0.955,1.445-1.477,2.428-1.406
	l0,0c-0.162-1.056,0.363-2.143,1.379-2.635l0,0c1.242-0.609,2.738-0.094,3.346,1.146l0,0c0.6,1.242,0.086,2.74-1.154,3.349l0,0
	c-0.416,0.192-0.854,0.276-1.275,0.239l0,0c0.076,0.488,0.014,1.011-0.223,1.488l0,0c-0.291,0.608-0.799,1.034-1.381,1.253l0,0
	c0.375,0.538,0.557,1.213,0.43,1.917l0,0c-0.139,0.745-0.588,1.35-1.189,1.708l0,0c0.516,0.483,0.818,1.195,0.781,1.957l0,0
	c-0.045,0.782-0.455,1.465-1.041,1.883l0,0c0.574,0.453,0.957,1.151,0.961,1.942l0,0c0.016,0.818-0.373,1.551-0.979,2.02l0,0
	c0.635,0.461,1.039,1.219,1.023,2.06l0,0c-0.012,0.852-0.449,1.585-1.096,2.025l0,0c0.605,0.501,0.959,1.271,0.896,2.114l0,0
	c-0.055,0.842-0.523,1.545-1.189,1.957l0,0c0.574,0.522,0.898,1.303,0.795,2.136l0,0c-0.094,0.833-0.594,1.519-1.271,1.901l0,0
	c0.557,0.553,0.842,1.344,0.709,2.179l0,0c-0.135,0.825-0.666,1.501-1.365,1.843l0,0c0.529,0.574,0.785,1.396,0.609,2.213l0,0
	c-0.174,0.836-0.754,1.484-1.475,1.785l0,0c0.498,0.616,0.705,1.46,0.461,2.277l0,0c-0.244,0.838-0.887,1.447-1.658,1.693l0,0
	c0.451,0.696,0.559,1.593,0.195,2.404l0,0c-0.402,0.894-1.257,1.43-2.176,1.479l0,0c0.312,1.021-0.063,2.172-1.004,2.803l0,0
	c-0.4,0.271-0.857,0.406-1.307,0.42l0,0C148.121,61.42,147.288,61.027,146.795,60.281z"/>
<path class="st16" d="M142.192,33.171c-0.025-0.829,0.623-1.52,1.453-1.546l0,0c0.829-0.035,1.52,0.623,1.546,1.443l0,0
	c0.025,0.83-0.624,1.52-1.452,1.556l0,0C142.908,34.65,142.217,34.001,142.192,33.171z"/>
<path class="st16" d="M142.474,37.264c-0.026-0.829,0.624-1.52,1.453-1.546l0,0c0.829-0.035,1.521,0.623,1.546,1.443l0,0
	c0.025,0.83-0.623,1.52-1.453,1.556l0,0C143.191,38.744,142.5,38.094,142.474,37.264z"/>
<path class="st16" d="M142.709,41.171c-0.026-0.829,0.623-1.52,1.453-1.546l0,0c0.828-0.035,1.52,0.623,1.545,1.443l0,0
	c0.025,0.83-0.623,1.52-1.452,1.556l0,0C143.426,42.65,142.735,42.001,142.709,41.171z"/>
<path class="st16" d="M142.803,45.124c-0.025-0.829,0.623-1.52,1.453-1.546l0,0c0.829-0.035,1.52,0.623,1.546,1.443l0,0
	c0.025,0.83-0.624,1.52-1.452,1.556l0,0C143.52,46.603,142.828,45.954,142.803,45.124z"/>
<path class="st16" d="M143.227,49.124c-0.025-0.829,0.623-1.52,1.453-1.546l0,0c0.829-0.035,1.52,0.623,1.546,1.443l0,0
	c0.025,0.83-0.624,1.52-1.452,1.556l0,0C143.944,50.603,143.252,49.954,143.227,49.124z"/>
<path class="st16" d="M143.838,53.313c-0.025-0.829,0.624-1.52,1.453-1.546l0,0c0.83-0.035,1.521,0.623,1.547,1.443l0,0
	c0.025,0.83-0.624,1.52-1.453,1.556l0,0C144.555,54.793,143.865,54.143,143.838,53.313z"/>
<path class="st16" d="M144.639,57.125c-0.025-0.829,0.623-1.52,1.453-1.546l0,0c0.829-0.035,1.52,0.623,1.546,1.443l0,0
	c0.025,0.83-0.624,1.52-1.452,1.556l0,0C145.356,58.604,144.664,57.955,144.639,57.125z"/>
<path class="st16" d="M155.057,33.452c-0.822-0.015-1.482-0.694-1.469-1.524l0,0c0.014-0.832,0.695-1.482,1.525-1.469l0,0
	c0.832,0.014,1.492,0.693,1.469,1.525l0,0c-0.006,0.8-0.656,1.44-1.445,1.465l0,0C155.106,33.451,155.086,33.451,155.057,33.452z"/>
<path class="st16" d="M154.963,37.499c-0.822-0.015-1.482-0.694-1.469-1.524l0,0c0.014-0.832,0.695-1.482,1.525-1.469l0,0
	c0.832,0.014,1.492,0.693,1.469,1.525l0,0c-0.006,0.8-0.656,1.44-1.445,1.465l0,0C155.012,37.498,154.992,37.498,154.963,37.499z"/>
<path class="st16" d="M154.633,41.452c-0.82-0.015-1.482-0.694-1.469-1.524l0,0c0.016-0.832,0.695-1.482,1.525-1.469l0,0
	c0.832,0.014,1.492,0.693,1.469,1.525l0,0c-0.006,0.8-0.656,1.44-1.445,1.465l0,0C154.682,41.451,154.662,41.451,154.633,41.452z"/>
<path class="st16" d="M154.022,45.547c-0.822-0.015-1.482-0.694-1.469-1.524l0,0c0.014-0.832,0.695-1.482,1.525-1.469l0,0
	c0.832,0.014,1.492,0.693,1.469,1.525l0,0c-0.006,0.8-0.656,1.44-1.445,1.465l0,0C154.071,45.546,154.051,45.546,154.022,45.547z"/>
<path class="st16" d="M153.362,49.311c-0.82-0.015-1.481-0.694-1.467-1.524l0,0c0.014-0.832,0.693-1.482,1.525-1.469l0,0
	c0.83,0.014,1.492,0.693,1.467,1.525l0,0c-0.004,0.8-0.654,1.44-1.445,1.465l0,0C153.412,49.31,153.393,49.31,153.362,49.311z"/>
<path class="st16" d="M152.28,53.124c-0.82-0.015-1.482-0.694-1.467-1.524l0,0c0.014-0.832,0.693-1.482,1.525-1.469l0,0
	c0.83,0.014,1.49,0.693,1.467,1.525l0,0c-0.006,0.8-0.656,1.44-1.445,1.465l0,0C152.33,53.123,152.311,53.123,152.28,53.124z"/>
<path class="st16" d="M151.104,56.983c-0.82-0.015-1.482-0.694-1.468-1.524l0,0c0.015-0.832,0.694-1.482,1.525-1.469l0,0
	c0.831,0.014,1.491,0.693,1.468,1.525l0,0c-0.006,0.8-0.656,1.44-1.445,1.465l0,0C151.154,56.982,151.134,56.982,151.104,56.983z"/>
<path class="st16" d="M148.798,60.325c-0.821-0.015-1.42-0.452-1.42-1.063c0.612,0.131,1.478-0.941,1.478-1.93l0,0
	c0.831,0.014,1.492,0.693,1.468,1.525l0,0c-0.005,0.8-0.655,1.44-1.445,1.465l0,0C148.848,60.324,148.828,60.324,148.798,60.325z"/>
<path class="st16" d="M143.603,30.617c-0.819,0.025-1.511-0.635-1.536-1.454l0,0c-0.025-0.829,0.634-1.521,1.463-1.546l0,0
	c0.83-0.016,1.512,0.633,1.537,1.463l0,0c0.025,0.82-0.623,1.51-1.453,1.536l0,0C143.614,30.616,143.614,30.616,143.603,30.617z"/>
<path class="st16" d="M155.063,29.449c-0.83,0.017-1.512-0.653-1.518-1.473l0,0c-0.016-0.83,0.654-1.512,1.484-1.527l0,0
	c0.82-0.004,1.5,0.664,1.516,1.484l0,0c0.006,0.82-0.645,1.49-1.453,1.516l0,0C155.082,29.449,155.073,29.449,155.063,29.449z"/>
<path class="st16" d="M143.508,26.617c-0.83,0.006-1.5-0.674-1.497-1.505l0,0c0.005-0.819,0.675-1.491,1.505-1.497l0,0
	c0.82,0.004,1.492,0.674,1.496,1.504l0,0c-0.004,0.811-0.644,1.472-1.453,1.497l0,0C143.539,26.617,143.53,26.617,143.508,26.617z"
	/>
<path class="st16" d="M155.039,25.449c-0.832-0.044-1.465-0.756-1.41-1.578l0,0c0.043-0.832,0.754-1.463,1.576-1.408l0,0
	c0.832,0.043,1.463,0.754,1.41,1.576l0,0c-0.047,0.781-0.678,1.392-1.447,1.416l0,0C155.129,25.455,155.078,25.457,155.039,25.449z"
	/>
<path class="st16" d="M143.524,22.615c-0.82-0.035-1.463-0.735-1.428-1.557l0,0c0.034-0.832,0.734-1.475,1.557-1.439l0,0
	c0.831,0.034,1.473,0.735,1.438,1.566l0,0c-0.036,0.781-0.677,1.412-1.456,1.436l0,0C143.595,22.623,143.565,22.623,143.524,22.615z
	"/>
<path class="st16" d="M155.305,21.459c-0.816-0.155-1.359-0.93-1.205-1.744l0,0l0,0l0,0c0.145-0.814,0.928-1.359,1.744-1.205l0,0
	c0.814,0.145,1.348,0.93,1.203,1.744l0,0c-0.127,0.705-0.732,1.203-1.432,1.225l0,0C155.516,21.481,155.405,21.474,155.305,21.459z"
	/>
<path class="st16" d="M143.721,18.617c-0.824-0.095-1.417-0.846-1.312-1.66l0,0c0.095-0.824,0.836-1.416,1.66-1.322l0,0
	c0.822,0.104,1.406,0.847,1.312,1.67l0,0l0,0l0,0c-0.088,0.742-0.71,1.303-1.44,1.325l0,0
	C143.871,18.632,143.791,18.625,143.721,18.617z"/>
<path class="st16" d="M156.082,17.522c-0.752-0.366-1.059-1.257-0.703-2.009l0,0c0.369-0.742,1.258-1.06,2.01-0.693l0,0
	c0.742,0.357,1.059,1.258,0.693,2l0,0c-0.254,0.519-0.766,0.834-1.305,0.851l0,0C156.547,17.677,156.307,17.626,156.082,17.522z"/>
<path class="st16" d="M158.031,13.939c-0.363-0.748-0.051-1.639,0.699-2.002l0,0c0.738-0.363,1.639-0.061,2.002,0.688l0,0
	c0.363,0.749,0.051,1.639-0.688,2.002l0,0c-0.197,0.097-0.406,0.153-0.615,0.159l0,0C158.86,14.804,158.299,14.492,158.031,13.939z"
	/>
<path class="st16" d="M144.207,14.64c-0.788-0.257-1.225-1.094-0.979-1.882l0,0c0.255-0.798,1.102-1.234,1.891-0.979l0,0
	c0.788,0.246,1.225,1.094,0.979,1.881l0,0l0,0l0,0c-0.2,0.627-0.768,1.025-1.389,1.045l0,0
	C144.54,14.71,144.379,14.694,144.207,14.64z"/>
<path class="st16" d="M145.608,10.425c-0.025-0.829,0.623-1.521,1.453-1.546l0,0c0.828-0.025,1.52,0.623,1.545,1.453l0,0
	c0.026,0.829-0.623,1.52-1.452,1.545l0,0l0,0l0,0C146.324,11.902,145.633,11.254,145.608,10.425z"/>
<linearGradient id="SVGID_5_" gradientUnits="userSpaceOnUse" x1="46.01" y1="-35.8948" x2="111.9446" y2="-35.8948" gradientTransform="matrix(0.9995 -0.031 0.031 0.9995 4.1563 -45.6945)">
	<stop  offset="0" style="stop-color:#CE6E32"/>
	<stop  offset="0.0753" style="stop-color:#CF7438"/>
	<stop  offset="0.2203" style="stop-color:#D17A3E"/>
	<stop  offset="1" style="stop-color:#CD6B2C"/>
</linearGradient>
<path class="st14" d="M66.862-68.596c0,0-2.945,2.219-5.428,2.295c-2.479,0.078-12.004-3.883-12.297-13.275
	c-0.164-5.316,4.02-7.75,6.322-7.822c2.302-0.071,5.574,2.486,6.139,3.533s4.438,0.042,3.795-3.488
	c-0.643-3.527-3.277-14.086,1.339-19.729c4.612-5.642,10.794-12.218,27.807-12.747c12.581-0.391,21.085,17.191,19.896,23.859
	c-0.604,3.391-2.415,7.881-2.343,10.186c0.035,1.15,0.885,3.069,0.959,5.459c0.977,3.16,1.651,6.578,1.137,9.398
	c-1.547,8.52-6.775,11.538-9.523,14.46c-2.747,2.923-3.523,6.497-6.702,6.949c-3.179,0.454-6.529,1.088-9.226-0.069
	c-2.696-1.156-9.008-4.51-14.419-7.355C68.908-59.79,66.811-64.516,66.862-68.596z"/>
<circle class="st20" cx="60.233" cy="-71.961" r="2.382"/>
<circle class="st16" cx="60.511" cy="-72.302" r="1.269"/>
<path class="st22" d="M76.975-88.512c-5.504,2.7-9.645-1.359-9.645-1.359s2.156,5.476,9.406,3.006"/>
<path class="st22" d="M109.723-90.268c4.642,4.004,9.676,1.127,9.676,1.127s-3.475,4.75-9.861,0.523"/>
<path class="st22" d="M107.507-89.598c7.202,2.607,9.463-2.826,9.463-2.826s-2.944,2.989-6.753,2.109
	c-2.625-0.606-8.339,0.406-9.084,4.973"/>
<path class="st22" d="M80.078-88.473c-5.992,2.041-7.775-2.483-7.775-2.483s2.772,2.763,7.189,1.33
	c3.619-1.173,12.277-3.489,12.946,7.062"/>
<path class="st16" d="M74.727-86.229c0,0,0.197,8.795,10.111,8.487c6.706-0.208,7.307-4.851,7.307-4.851s0.068-7.463-6.938-7.244
	C78.202-89.619,74.727-86.229,74.727-86.229z"/>
<path class="st16" d="M101.318-85.114c0,0,1.852-4.752,7.962-4.941c3.996-0.125,3.787,2.131,3.614,5.341
	c-0.144,2.681-2.151,5.274-5.429,5.376S101.457-80.642,101.318-85.114z"/>
<path class="st17" d="M92.442-75.955c0,0-2.439,1.408-0.959,3.4"/>
<path class="st0" d="M83.213-68.686c0,0,1.582,13.704,11.148,14.49c1.758,0.143,2.363,0.279,3.51-0.189
	c4.023-1.645,5.42-8.982,5.78-10.191"/>
<path class="st17" d="M79.095,36.041c0,0-0.268,2.998,1.373,6.578"/>
<path class="st17" d="M103.118-77.85c0,0,1.474,1.957,1.493,2.581c0.02,0.627-0.294,2.149-2.274,2.965
	c-0.26,0.106-0.015,0.526,0.324,0.879"/>
<path class="st17" d="M101.104-57.373c0,0-1.513,3.146-4.438,3.237c-2.923,0.091-5.08-0.772-5.08-0.772"/>
<path class="st17" d="M93.44-72.395c-0.277-0.389,1.438-0.842,2.665,0.185"/>
<path class="st17" d="M83.471-70.004c0,0-1.287-0.485-1.887,0.693"/>
<path class="st17" d="M76.506-73.03c0,0,1.142,0.77,0.529,1.941"/>
<path class="st19" d="M86.123-65.645l14.919-0.849c-0.251,0.539,5.731-0.593,3.646,0.802c-1.02,0.68-3.781,6.77-7.637,6.889
	c-0.622,0.02-1.224-0.004-1.804-0.066C86.561-59.797,86.123-65.645,86.123-65.645z"/>
<g>
	<path class="st16" d="M102.172-65.348c-1.188,0.304-1.525,1.439-2.993,1.219c-1.471-0.22-4.046-1-5.911-0.941
		c-3.721,0.115-9.087-1.314-9.797-2.756c-0.047-0.094-0.105-0.198-0.168-0.3c0.543,1.044,1.506,2.665,2.92,4.265
		c0.735,0.228,2.38,1.028,3.562,1.285c-1.258,0.279-2.262-0.264-2.889-0.559c2.321,2.361,5.666,4.472,10.155,4.332
		c0.724-0.022,1.409-0.255,2.05-0.623c0.633-0.812,1.318-1.719,1.372-1.898c-0.37,0.125-1.194-0.078-1.194-0.078
		s1.436-0.389,1.875-0.666c0.271-0.166,1.156-1.848,1.934-3.398C102.772-65.449,102.463-65.422,102.172-65.348z"/>
</g>
<path class="st17" d="M82.76-69.268c0,0,4.326,10.774,14.292,10.465c3.855-0.119,6.613-6.215,7.637-6.889
	c1.452-0.956,1.379-1.824,1.628-2.365"/>
<path class="st5" d="M95.552-68.602c0.96,0.135,3.378,1.625,5.756,1.153c2.38-0.475,2.87-1.818,3.27-1.831
	c0.399-0.012,1.517,2.171,0.758,2.979c-0.761,0.808-1.522,0.879-2.709,1.182c-1.188,0.303-1.954,1.111-3.425,0.891
	c-1.47-0.221-4.068-0.9-5.934-0.842c-3.721,0.115-9.087-1.314-9.797-2.756c-0.215-0.435-0.728-1.086-0.258-0.859
	c1.977,0.949,4.73,1.442,6.74,1.25C92.827-67.714,95.006-68.676,95.552-68.602z"/>
<path class="st17" d="M102.289-92.932c0,0-2.314,5.764-0.393,10.861"/>
<path class="st17" d="M107.078-92.904c0,0,3.519-0.996,4.814,0.737"/>
<path class="st17" d="M88.248-93.915c0,0,2.691,0.982,3.631,2.726"/>
<path class="st22" d="M92.166-104.857c-2.555-1.024-11.748-1.232-15.674,3.679c0,0,7.555-2.361,11.336-0.527
	C91.61-99.873,95.039-103.705,92.166-104.857z"/>
<path class="st22" d="M104.211-105.047c-1.596,0.037-2.168,4.632,2.067,4.172c4.233-0.46,7.393,2.646,7.393,2.646
	S111.182-105.205,104.211-105.047z"/>
<g>
	<defs>
		<path id="SVGID_6_" d="M74.727-86.229c0,0,0.197,8.795,10.111,8.487c6.706-0.208,7.307-4.851,7.307-4.851s0.068-7.463-6.938-7.244
			C78.202-89.619,74.727-86.229,74.727-86.229z"/>
	</defs>
	<clipPath id="SVGID_7_">
		<use xlink:href="#SVGID_6_"  style="overflow:visible;"/>
	</clipPath>
	
		<ellipse transform="matrix(0.9994 0.0348 -0.0348 0.9994 -2.8687 -3.0525)" class="st29" cx="86.315" cy="-83.991" rx="5.307" ry="6.585"/>
	
		<ellipse transform="matrix(0.9994 0.0346 -0.0346 0.9994 -2.856 -3.0753)" class="st23" cx="87.32" cy="-83.956" rx="2.805" ry="3.479"/>
</g>
<g>
	<defs>
		<path id="SVGID_8_" d="M101.318-85.114c0,0,1.852-4.752,7.962-4.941c3.996-0.125,4.26,2.117,4.086,5.326
			c-0.144,2.682-2.623,5.289-5.9,5.391S101.457-80.642,101.318-85.114z"/>
	</defs>
	<clipPath id="SVGID_9_">
		<use xlink:href="#SVGID_8_"  style="overflow:visible;"/>
	</clipPath>
	
		<ellipse transform="matrix(0.9982 0.0595 -0.0595 0.9982 -4.8829 -6.6165)" class="st1" cx="108.755" cy="-85.369" rx="4.008" ry="6.09"/>
	
		<ellipse transform="matrix(0.9982 0.0594 -0.0594 0.9982 -4.8779 -6.6497)" class="st31" cx="109.358" cy="-85.334" rx="2.071" ry="3.219"/>
</g>
<path class="st9" d="M41.541-129.785c0,0-0.897-0.63-1.645,0.051c-0.748,0.682-2.396,4.136-3.996,5.724
	c-1.596,1.588-4.326,5.625-3.264,8.007c1.062,2.381,11.295,3.053,11.295,3.053s5.875-5.232,4.41-10.018
	C46.875-127.756,41.541-129.785,41.541-129.785z"/>
<path class="st9" d="M40.85-116.698c0,0-3.764-0.981-6.159-0.359c-2.396,0.625-4.296,3.1-3.886,5.721
	c0.412,2.622,3.49,6.259,3.592,9.551c0.103,3.291-1.823,4.887-0.592,5.729c1.234,0.84,9.503-5.125,9.37-9.404
	c-0.133-4.277,1.056-8.488,1.056-8.488"/>
<path class="st9" d="M41.082-61.658c5.557-10.433-1.117-20.947-1.242-28.814c-0.123-7.868,2.777-16.543,2.777-16.543l2.641,0.27
	c0,0-2.976,9.09-2.853,16.957c0.122,7.868,6.872,17.969,1.315,28.401"/>
<path class="st9" d="M40.939-120.984c0,0-1.272-2.046-1.345-4.351c-0.149-4.825,6.197-9.086,10.805-9.229
	c4.605-0.143,5.192,1.047,7.043,0.55c1.852-0.495,4.107-2.103,4.984-2.13s0.639,6.459-4.812,11.238"/>
<path class="st9" d="M41.985-115.528c-1.727,0.934-3.952,3.528-2.537,6.668c1.414,3.142,4.545,4.91,6.039,7.059
	c1.492,2.15,3.027,5.615,4.783,5.562c1.756-0.055,1.738-4.116,3.192-6.798c1.454-2.68,2.333-6.219,0.928-9.03"/>
<path class="st9" d="M44.68-117.145c0,0-0.477,5.832,7.529,5.584c4.059-0.127,16.082-5.439,15.959-9.39
	c-0.062-1.974-3.088-0.452-4.404-0.411c-4.498,0.139-5.983-5.305-11.797-5.124c-3.621,0.112-6.038,3.591-6.038,3.591"/>
<path class="st2" d="M91.478-58.543c-0.681,0.18-1.819,1.496-1.324,1.659c0.497,0.165,1.462-0.405,1.481,0.224
	s1.201,0.771,1.381,0.228c0.182-0.546,0.738-1.551-0.041-1.348C92.196-57.575,92.256-58.747,91.478-58.543z"/>
<linearGradient id="SVGID_10_" gradientUnits="userSpaceOnUse" x1="62.239" y1="-49.7776" x2="65.3027" y2="-31.1605" gradientTransform="matrix(0.9995 -0.031 0.031 0.9995 4.1563 -45.6945)">
	<stop  offset="0" style="stop-color:#421326"/>
	<stop  offset="0.136" style="stop-color:#48172B"/>
	<stop  offset="0.6359" style="stop-color:#5A2438"/>
	<stop  offset="1" style="stop-color:#60293D"/>
</linearGradient>
<path class="st24" d="M70.598-111.693c-3.037,2.782-3.043,5.979-2.98,7.992c0.062,2.014,2.543,4.009,2.646,7.364
	c0.104,3.357-6.539,6.251-7.436,8.295c0.256,0.496,4.117,1.048,4.18,3.061c0.062,2.014-4.189,4.33-4.127,6.344
	s8.426,0.411,8.51,3.097c0.033,1.06-2.956,2.552-2.956,2.552s0.62-1.426,0.593-2.328c-0.028-0.904-3.605-0.148-4.725-0.5
	c-1.12-0.352-4.513-2.571-4.547-3.666c-0.034-1.096,3.407-3.27,3.385-3.979c-0.021-0.709-4.754-1.4-4.832-3.916
	c-0.168-5.415,4.6-8.467,4.684-8.729c0.084-0.261-2.143-5.742-1.84-7.816"/>
<linearGradient id="SVGID_11_" gradientUnits="userSpaceOnUse" x1="90.8162" y1="-68.0056" x2="104.6321" y2="-68.0056" gradientTransform="matrix(0.9995 -0.031 0.031 0.9995 4.1563 -45.6945)">
	<stop  offset="0" style="stop-color:#421326"/>
	<stop  offset="0.136" style="stop-color:#48172B"/>
	<stop  offset="0.6359" style="stop-color:#5A2438"/>
	<stop  offset="1" style="stop-color:#60293D"/>
</linearGradient>
<path class="st25" d="M95.01-119.297c0,0,5.406-2.104,5.779-1.088c0.373,1.014-3.631,4.214-3.015,5.677
	c0.616,1.461,2.411,4.257,4.006,4.208c1.594-0.05,3.85-0.803,3.8-2.397c-0.049-1.595-2.988-0.821-2.988-0.821
	s1.488,0.183,1.513,0.98c0.024,0.797-1.069,1.037-2.12,0.272s-1.078-1.677-1.117-2.929s5.721-2.777,5.64-5.396
	c-0.14-4.492-11.352-1.246-13.794,0.883"/>
<g>
	<path class="st6" d="M84.45-86.033c3.623,0.295,6.729,2.219,7.974,3.094c-0.098-1.5-0.859-7.057-6.924-6.868
		c-7.005,0.218-10.481,3.606-10.481,3.606s0.024,0.697,0.261,1.678C76.567-85.006,80.567-86.348,84.45-86.033z"/>
</g>
<g>
	<path class="st6" d="M109.28-90.055c-6.11,0.189-7.962,4.941-7.962,4.941c0.019,0.595,0.087,1.133,0.192,1.624
		c1.749-1.099,5.828-3.028,11.893-2.269C113.432-88.406,112.832-90.166,109.28-90.055z"/>
</g>
<path class="st20" d="M46.012-61.276c-0.441,1.922-2.363,3.125-4.285,2.682c-1.924-0.443-3.125-2.365-2.684-4.287
	c0.442-1.921,2.365-3.123,4.287-2.68C45.256-65.117,46.455-63.197,46.012-61.276z"/>
<circle class="st16" cx="43.064" cy="-62.465" r="1.906"/>
<circle class="st20" cx="86.506" cy="-44.798" r="2.241"/>
<path class="st30" d="M87.963-45.155c0.021,0.66-0.498,1.211-1.157,1.23c-0.659,0.021-1.21-0.496-1.231-1.156
	c-0.02-0.656,0.498-1.209,1.158-1.23C87.392-46.33,87.944-45.811,87.963-45.155z"/>
<path class="st20" d="M90.219-41.211c0.039,1.25-0.944,2.297-2.193,2.335c-1.25,0.039-2.297-0.944-2.336-2.194
	c-0.039-1.247,0.946-2.291,2.195-2.33C89.135-43.44,90.181-42.458,90.219-41.211z"/>
<circle class="st30" cx="88.22" cy="-41.462" r="1.207"/>
<path class="st20" d="M90.414-36.888c0.044,1.407-1.064,2.589-2.474,2.634c-1.409,0.043-2.591-1.067-2.636-2.475
	c-0.043-1.409,1.067-2.588,2.477-2.631C89.192-39.404,90.371-38.297,90.414-36.888z"/>
<circle class="st30" cx="88.16" cy="-37.173" r="1.361"/>
<path class="st9" d="M84.576-35.82c0,0,1.563-1.308,2.535-1.338c0.971-0.03,1.701,1.435,1.661,1.951
	c-0.04,0.518,5.407-0.31,7.341,4.122c0.37,0.848-0.011,1.547-0.011,1.547s0.404,1.875-0.094,2.52
	c0.034,1.086-0.513,1.848-1.761,2.287c-1.244,0.439-2.283,0.128-2.283,0.128s-0.602,0.878-1.745,0.914
	c-1.146,0.036-2.085-0.737-2.085-0.737s-0.905,0.313-1.79-0.518c-0.884-0.831-1.476-3.271-1.513-4.473
	c-0.037-1.202,0.301-3.271,0.301-3.271S83.122-34.744,84.576-35.82z"/>
<circle class="st20" cx="83.326" cy="-33.576" r="2.555"/>
<circle class="st30" cx="83.625" cy="-33.941" r="1.36"/>
<circle class="st20" cx="79" cy="-34.765" r="2.555"/>
<circle class="st30" cx="79.299" cy="-35.128" r="1.361"/>
<linearGradient id="SVGID_12_" gradientUnits="userSpaceOnUse" x1="59.9705" y1="0.5427" x2="59.9705" y2="23.8482" gradientTransform="matrix(0.9995 -0.031 0.031 0.9995 4.1563 -45.6945)">
	<stop  offset="0" style="stop-color:#421326"/>
	<stop  offset="0.136" style="stop-color:#48172B"/>
	<stop  offset="0.6359" style="stop-color:#5A2438"/>
	<stop  offset="1" style="stop-color:#60293D"/>
</linearGradient>
<path class="st26" d="M69.302-60.906c0,0-3.497,10.002,1.8,10.764c3.441,0.493,2.697,1.893,1.902,4.553
	c-0.797,2.66-1.951,5.156,1.562,5.048c2.106-0.065,1.46-3.912,1.46-3.912s2.77,4.308-0.336,6.161
	c3.363,0.773,2.216,5.203,2.281,7.31c0.065,2.105-4.734,5.501-4.676,7.364c0.057,1.862,4.554,3.443,6.306-0.196
	c0.401,3.716-4.708,5.452-7.286,5.532c-2.58,0.08-6.734-4.381-6.872-8.822c-0.138-4.444-0.405-7.807-0.405-7.807
	s-5.4-8.328-11.495-12.611c-6.013-4.225-5.862-11.443-0.098-16.789"/>
<path class="st9" d="M126.963,8.033c1.104,1.633,1.668,4.373,1.867,7.971c0.156,2.815-0.137,3.947-0.742,5.126
	c0,0-0.768-1.955-0.877-3.483l-1.881,0.223c0,0,0.486,6.558,2.852,7.277c1.885,0.572,4.08-3.916,3.73-9.238
	c-0.35-5.321-2.109-9.617-3.921-9.561c-1.86,0.059-2.249,1.63-2.249,1.63L126.963,8.033z"/>
<path class="st7" d="M42.354-110.119c0.634,1.618,1.129-5.038,1.873-4.06c0.746,0.979,1.635,1.951,1.711-0.194
	c0.074-2.146,1.107-5.752,3.816-5.979c2.707-0.229-2.316-0.928-3.307-0.612s-0.745-0.979-0.504-2.415
	c0.24-1.438-0.555,0.59-1.295-0.245c-0.74-0.836,0.785-6.886-0.458-5.562c-1.245,1.326-1.731,4.059-1.401,5.477
	c0.33,1.419-0.827,1.023-1.68,1.194c-0.852,0.17-1.816,1.345-0.95,1.603c0.867,0.258,0.491,1.986-1.062,2.605
	s-1.539,1.777,0.919,1.973c1.289,0.103-4.547,0.855-6.186,3.337c-1.637,2.479,3.387-1.394,6.806-1.784
	C44.055-115.173,41.576-112.096,42.354-110.119z"/>
<path class="st7" d="M43.489-119.694c0,0-4.219-1.136-5.878-1.278l-0.256,1.177c0,0,4.692,0.633,6.269,1.265
	C43.918-118.444,43.489-119.694,43.489-119.694z"/>
<path class="st7" d="M38.42-120.412c0.021,0.705-0.533,1.297-1.239,1.318l0,0c-0.706,0.022-1.297-0.534-1.319-1.24l0,0
	c-0.021-0.705,0.533-1.296,1.24-1.318l0,0C37.808-121.674,38.399-121.118,38.42-120.412L38.42-120.412z"/>
<path class="st17" d="M43.657-121.446c0,0,1.622,2.895-0.448,4.549"/>
<linearGradient id="SVGID_13_" gradientUnits="userSpaceOnUse" x1="152.8665" y1="69.4016" x2="168.0491" y2="69.4016" gradientTransform="matrix(0.9995 -0.031 0.031 0.9995 4.1563 -45.6945)">
	<stop  offset="0" style="stop-color:#CE6E32"/>
	<stop  offset="0.0753" style="stop-color:#CF7438"/>
	<stop  offset="0.2203" style="stop-color:#D17A3E"/>
	<stop  offset="1" style="stop-color:#CD6B2C"/>
</linearGradient>
<path class="st27" d="M174.231,17.135c0,0-9.891,1.462-15.092,3.124"/>
<path class="st17" d="M125.33,17.869c0,0,0.486,6.558,2.852,7.277c1.885,0.572,4.08-3.916,3.73-9.238
	c-0.35-5.321-2.109-9.617-3.921-9.561c-1.86,0.059-2.249,1.63-2.249,1.63"/>
<path class="st17" d="M126.963,8.033c1.104,1.633,1.668,4.373,1.867,7.971c0.156,2.815-0.451,4.895-1.057,6.073"/>
<path class="st17" d="M128.088,21.13c0,0-0.768-1.955-0.877-3.483"/>
<path class="st9" d="M124.006,7.75c0.947,1.637,1.248,4.387,1.105,7.994c-0.111,2.824-0.57,4.836-1.287,6.018
	c0,0-0.395-1.989-0.359-3.521l-1.244,0.164c0,0,0.285,5.75,1.377,6.509c0.869,0.604,3.162-3.762,3.319-9.1
	c0.157-5.337-0.747-9.784-1.726-9.753c-1.004,0.031-1.746,1.574-1.746,1.574L124.006,7.75z"/>
<path class="st17" d="M122.221,18.404c0,0,0.285,5.75,1.377,6.509c0.869,0.604,3.162-3.762,3.319-9.1
	c0.157-5.337-0.747-9.784-1.726-9.753c-1.004,0.031-1.746,1.574-1.746,1.574"/>
<path class="st17" d="M124.006,7.75c0.947,1.637,1.248,4.387,1.105,7.994c-0.111,2.824-0.975,5.786-1.689,6.969"/>
<path class="st17" d="M123.824,21.761c0,0-0.395-1.989-0.359-3.521"/>
<path class="st17" d="M83.405,194.074c-8.7-0.383-20.816,1.889-27.309,7.853"/>
<circle class="st16" cx="84.796" cy="-85.866" r="1.307"/>
<circle class="st16" cx="107.149" cy="-86.56" r="1.045"/>
<path class="st8" d="M102.365,39.198c2.311,4.476,1.273,16.351,4.005,21.551c4.114,7.833,11.357,13.694,19.921,20.089
	c17.611,13.151,61.287,31.014,62.357,65.475c0.885,28.543-25.406,54.779-105.244,47.762c-6.23,5.631-9.087,11.547-7.76,27.903
	c1.049,12.911,9.224,26.487,4.756,49.44c-1.326,6.816-6.719,7.211-12.756-0.363c-7.463-9.365-18.273-10.307-23.761-15.722
	c-8.687-8.577-9.251-11.437-14.577-12.442c-5.328-0.996-12.686,1.25-23.951,10.332c-10.373,8.359-26.104,1.477-34.986,14.425
	c-7.016,10.22-19.825,13.819-19.024,5.126c5.793-62.854,67.567-96.465,141.372-97.186c27.828-0.271,48.095-2.968,47.609-18.59
	c-0.756-24.367-99.234-20.698-100.935-75.444c-0.855-27.55,18.992-45.843,18.992-45.843s9.442-2.916,26.335,9.704
	C94.789,52.939,101.371,44.731,102.365,39.198z"/>
</svg>
